<svg width="10" height="18" viewBox="0 0 10 18" fill="none" xmlns="http://www.w3.org/2000/svg">
<path fill-rule="evenodd" clip-rule="evenodd" d="M6 1C6 0.734784 5.89464 0.48043 5.70711 0.292893C5.51957 0.105357 5.26522 0 5 0C4.73478 0 4.48043 0.105357 4.29289 0.292893C4.10536 0.48043 4 0.734784 4 1V2C2.93913 2 1.92172 2.42143 1.17157 3.17157C0.421427 3.92172 0 4.93913 0 6C0 7.06087 0.421427 8.07828 1.17157 8.82843C1.92172 9.57857 2.93913 10 4 10V14C3.58634 14.0001 3.18282 13.8719 2.84498 13.6332C2.50715 13.3945 2.25159 13.0569 2.1135 12.667C2.02172 12.4215 1.83726 12.2219 1.59981 12.1111C1.36235 12.0002 1.09087 11.987 0.843776 12.0743C0.596684 12.1616 0.393725 12.3424 0.278565 12.5778C0.163405 12.8132 0.145248 13.0844 0.228 13.333C0.503904 14.1129 1.01476 14.7882 1.69027 15.2658C2.36577 15.7434 3.1727 15.9999 4 16V17C4 17.2652 4.10536 17.5196 4.29289 17.7071C4.48043 17.8946 4.73478 18 5 18C5.26522 18 5.51957 17.8946 5.70711 17.7071C5.89464 17.5196 6 17.2652 6 17V16C7.06087 16 8.07828 15.5786 8.82843 14.8284C9.57857 14.0783 10 13.0609 10 12C10 10.9391 9.57857 9.92172 8.82843 9.17157C8.07828 8.42143 7.06087 8 6 8V4C6.41367 3.99994 6.81718 4.12808 7.15502 4.3668C7.49286 4.60552 7.74841 4.94307 7.8865 5.333C7.97828 5.57846 8.16274 5.77808 8.4002 5.88892C8.63765 5.99977 8.90913 6.01297 9.15622 5.92569C9.40332 5.83841 9.60628 5.65763 9.72144 5.42223C9.8366 5.18684 9.85475 4.91565 9.772 4.667C9.4961 3.88707 8.98524 3.21182 8.30973 2.7342C7.63423 2.25659 6.8273 2.00009 6 2V1ZM4 4C3.46957 4 2.96086 4.21071 2.58579 4.58579C2.21071 4.96086 2 5.46957 2 6C2 6.53043 2.21071 7.03914 2.58579 7.41421C2.96086 7.78929 3.46957 8 4 8V4ZM6 10V14C6.53043 14 7.03914 13.7893 7.41421 13.4142C7.78929 13.0391 8 12.5304 8 12C8 11.4696 7.78929 10.9609 7.41421 10.5858C7.03914 10.2107 6.53043 10 6 10Z" fill="white"/>
</svg>
