<svg width="29" height="34" viewBox="0 0 29 34" fill="none" xmlns="http://www.w3.org/2000/svg">
<path d="M24.2455 17.9678C24.2289 15.1809 25.5109 13.0805 28.0997 11.5318C26.6518 9.48857 24.4612 8.36482 21.5737 8.14824C18.8396 7.93575 15.8484 9.71741 14.7531 9.71741C13.5956 9.71741 10.9486 8.2218 8.86595 8.2218C4.56781 8.28718 0 11.5971 0 18.3315C0 20.3216 0.369242 22.377 1.10773 24.4938C2.09514 27.2807 5.65479 34.109 9.36795 33.9987C11.3096 33.9537 12.6828 32.642 15.2094 32.642C17.6614 32.642 18.9309 33.9987 21.0966 33.9987C24.8429 33.9456 28.0624 27.7383 29 24.9433C23.9758 22.6099 24.2455 18.1108 24.2455 17.9678V17.9678ZM19.8851 5.50435C21.9886 3.04435 21.7977 0.805017 21.7355 0C19.8768 0.106246 17.7278 1.24635 16.5039 2.64797C15.1555 4.15176 14.3631 6.01106 14.5332 8.10738C16.5412 8.25857 18.375 7.24106 19.8851 5.50435V5.50435Z" fill="#E2E2E2"/>
</svg>
