<svg width="32" height="32" viewBox="0 0 32 32" fill="none" xmlns="http://www.w3.org/2000/svg">
<path d="M1.37143 20.308C1.29524 20.308 1.25714 20.3461 1.18095 20.3461C0.838095 20.3461 0.533333 20.1175 0.457143 19.7747C0.152381 18.4794 0 17.2223 0 15.927C0 15.508 0.342857 15.1651 0.761905 15.1651C1.18095 15.1651 1.52381 15.508 1.52381 15.927C1.52381 17.108 1.67619 18.2508 1.94286 19.3937C2.05714 19.7747 1.79048 20.1937 1.37143 20.308ZM1.02857 12.9937C1.10476 12.9937 1.14286 13.0318 1.21905 13.0318C1.5619 13.0318 1.86667 12.8032 1.94286 12.4604C2.20952 11.3175 2.62857 10.2508 3.1619 9.18417C3.35238 8.80322 3.2 8.34608 2.85714 8.1556C2.47619 7.96513 2.01905 8.11751 1.82857 8.46036C1.21905 9.60322 0.761905 10.8223 0.457143 12.0794C0.342857 12.4985 0.609524 12.9175 1.02857 12.9937ZM4.57143 6.5556C4.8 6.5556 4.99048 6.47941 5.14286 6.28894C5.90476 5.41275 6.78095 4.65084 7.77143 3.96513C8.11429 3.73656 8.19048 3.24132 7.96191 2.89846C7.73333 2.5556 7.2381 2.47941 6.89524 2.70798C5.82857 3.43179 4.87619 4.30798 4 5.26036C3.73333 5.56513 3.73333 6.06036 4.07619 6.32703C4.22857 6.51751 4.41905 6.5556 4.57143 6.5556ZM17.7143 1.52703C18.8571 1.67941 20 1.94608 21.1048 2.36513C21.181 2.40322 21.2952 2.40322 21.3714 2.40322C21.6762 2.40322 21.981 2.21275 22.0952 1.90798C22.2476 1.52703 22.0571 1.06989 21.6381 0.917507C20.419 0.460365 19.1619 0.155603 17.9048 0.00322188C17.4857 -0.0348734 17.1048 0.269888 17.0667 0.650841C17.0286 1.10798 17.2952 1.48894 17.7143 1.52703ZM10.5905 2.44132C10.6667 2.44132 10.781 2.44132 10.8571 2.40322C11.9619 1.98417 13.0667 1.71751 14.2476 1.56513C14.6667 1.52703 14.9714 1.14608 14.8952 0.727031C14.8571 0.269888 14.4762 -0.0348736 14.0571 0.0413169C12.7619 0.193698 11.5048 0.49846 10.3238 0.955603C9.94286 1.10798 9.71429 1.52703 9.86667 1.94608C9.98095 2.25084 10.2857 2.44132 10.5905 2.44132ZM30.0571 12.4223C30.1333 12.7651 30.4381 12.9937 30.781 12.9937C30.8571 12.9937 30.8952 12.9937 30.9714 12.9556C31.3905 12.8413 31.619 12.4223 31.5429 12.0413C31.2381 10.7842 30.781 9.56513 30.1714 8.42227C29.981 8.04132 29.5238 7.88894 29.1429 8.11751C28.7619 8.34608 28.6095 8.76513 28.8381 9.14608C29.3714 10.1747 29.7905 11.2794 30.0571 12.4223ZM24.1905 4.00322C25.1429 4.65084 26.019 5.45084 26.819 6.32703C26.9714 6.47941 27.1619 6.5937 27.3905 6.5937C27.581 6.5937 27.7333 6.51751 27.8857 6.40322C28.1905 6.13655 28.2286 5.64132 27.9619 5.33656C27.1238 4.38417 26.1333 3.50798 25.0667 2.78417C24.7238 2.5556 24.2286 2.63179 24 2.97465C23.7714 3.27941 23.8476 3.73656 24.1905 4.00322ZM10.8571 29.4508C9.75238 29.0318 8.72381 28.4985 7.77143 27.8127C7.42857 27.5842 6.93333 27.6604 6.70476 28.0032C6.47619 28.3461 6.55238 28.8413 6.89524 29.0699C7.96191 29.7937 9.10476 30.4032 10.3238 30.8604C10.4 30.8985 10.5143 30.8985 10.5905 30.8985C10.8952 30.8985 11.2 30.708 11.3143 30.4032C11.4286 30.0223 11.2381 29.6032 10.8571 29.4508ZM31.2381 15.127C30.819 15.127 30.4762 15.4699 30.4762 15.8889V15.927C30.4762 17.108 30.3238 18.2508 30.0571 19.3937C29.9429 19.8127 30.2095 20.2318 30.6286 20.308C30.7048 20.308 30.7429 20.3461 30.819 20.3461C31.1619 20.3461 31.4667 20.1175 31.5429 19.7747C31.8476 18.5175 32 17.2604 32 15.927V15.8889C32 15.4699 31.6571 15.127 31.2381 15.127ZM17.7143 30.2889C17.1429 30.3651 16.5714 30.4032 15.9619 30.4032C15.3905 30.4032 14.819 30.3651 14.2476 30.2889C13.8286 30.2508 13.4476 30.5175 13.4095 30.9366C13.3714 31.3556 13.6381 31.7366 14.0571 31.7747C14.7048 31.8508 15.3143 31.8889 16 31.8889C16.6476 31.8889 17.2952 31.8508 17.9048 31.7747C18.3238 31.7366 18.6286 31.3556 18.5524 30.9366C18.5143 30.5175 18.1333 30.2508 17.7143 30.2889ZM3.1619 22.6318C2.97143 22.2508 2.51429 22.0985 2.13333 22.327C1.75238 22.5175 1.6 22.9747 1.82857 23.3556C2.4381 24.4985 3.16191 25.5651 4.0381 26.5175C4.19048 26.6699 4.38095 26.7842 4.60952 26.7842C4.8 26.7842 4.95238 26.708 5.10476 26.5937C5.40952 26.327 5.44762 25.8318 5.18095 25.527C4.38095 24.6127 3.73333 23.6604 3.1619 22.6318ZM16 12.308C17.1048 12.308 17.9048 12.9175 17.9048 13.4889C17.9048 14.1747 18.4762 14.7461 19.1619 14.7461C19.8476 14.7461 20.419 14.1747 20.419 13.4889C20.419 11.8127 19.0857 10.4032 17.2571 9.94608V9.56513C17.2571 8.87941 16.6857 8.30798 16 8.30798C15.3143 8.30798 14.7429 8.87941 14.7429 9.56513V9.94608C12.9143 10.4032 11.581 11.8127 11.581 13.4889C11.581 15.5461 13.5619 17.1842 16.0381 17.1842C17.1429 17.1842 17.9429 17.7937 17.9429 18.3651C17.9429 18.9366 17.1429 19.5461 16.0381 19.5461C14.9333 19.5461 14.1333 18.9366 14.1333 18.3651C14.1333 17.6794 13.5619 17.108 12.8762 17.108C12.1905 17.108 11.619 17.6794 11.619 18.3651C11.619 20.0413 12.9524 21.4508 14.781 21.908V22.2508C14.781 22.9366 15.3524 23.508 16.0381 23.508C16.7238 23.508 17.2952 22.9366 17.2952 22.2508V21.908C19.1238 21.4508 20.4571 20.0413 20.4571 18.3651C20.4571 16.308 18.4762 14.6699 16 14.6699C14.8952 14.6699 14.0952 14.0604 14.0952 13.4889C14.0952 12.9175 14.8952 12.308 16 12.308ZM21.6381 29.2223C21.4476 29.2985 21.2952 29.3747 21.1048 29.4508C20.7238 29.6032 20.4952 30.0223 20.6476 30.4413C20.7619 30.7461 21.0667 30.9366 21.3714 30.9366C21.4476 30.9366 21.5619 30.9366 21.6381 30.8985C21.981 30.7842 22.3238 30.6318 22.6667 30.4794C22.2857 30.0985 21.9429 29.6794 21.6381 29.2223ZM20.8381 27.0889C19.3143 27.7366 17.6762 28.0794 16 28.0794C16 28.0794 16 28.0794 15.9619 28.0794C12.7238 28.0794 9.63809 26.7842 7.35238 24.4985C5.06667 22.1747 3.80952 19.127 3.80952 15.8889C3.80952 12.6508 5.10476 9.56513 7.39048 7.27941C9.67619 4.9937 12.7619 3.73655 16 3.73655C16 3.73655 16 3.73655 16.0381 3.73655C19.2762 3.73655 22.3619 5.03179 24.6476 7.31751C26.9333 9.64132 28.1905 12.6889 28.1905 15.927C28.1905 17.527 27.8857 19.0889 27.2762 20.5366C27.8095 20.6127 28.3048 20.7651 28.7619 20.9556C29.3714 19.3937 29.7143 17.6794 29.7143 15.927C29.7143 12.2699 28.3048 8.80322 25.7143 6.21275C23.1238 3.62227 19.6952 2.21275 16.0381 2.21275C16.0381 2.21275 16.0381 2.21275 16 2.21275C12.3429 2.21275 8.91429 3.62227 6.32381 6.21275C3.73333 8.76513 2.28571 12.2318 2.28571 15.8889C2.28571 19.5461 3.69524 23.0127 6.28571 25.6032C8.87619 28.1937 12.3048 29.6413 15.9619 29.6413C15.9619 29.6413 15.9619 29.6413 16 29.6413C17.8286 29.6413 19.619 29.2604 21.2952 28.5746C21.0667 28.1175 20.9143 27.6223 20.8381 27.0889ZM32 26.2127C32 23.1651 29.5238 20.6889 26.4762 20.6889C23.4286 20.6889 20.9524 23.1651 20.9524 26.2127C20.9524 29.2604 23.4286 31.7366 26.4762 31.7366C29.5238 31.7366 32 29.2604 32 26.2127ZM30.4762 26.2127C30.4762 28.4223 28.6857 30.2127 26.4762 30.2127C24.2667 30.2127 22.4762 28.3842 22.4762 26.2127C22.4762 24.0413 24.2667 22.2127 26.4762 22.2127C28.6857 22.2127 30.4762 24.0032 30.4762 26.2127ZM24 25.9842H28.9524C29.3714 25.9842 29.7143 25.6413 29.7143 25.2223C29.7143 24.8032 29.3714 24.4604 28.9524 24.4604H25.8286L26.4 23.8889C26.5524 23.7366 26.6286 23.5461 26.6286 23.3556C26.6286 23.1651 26.5524 22.9747 26.4 22.8223C26.0952 22.5175 25.6381 22.5175 25.3333 22.8223L23.4667 24.6889C23.3143 24.8413 23.2762 24.9937 23.2381 25.1842C23.2381 25.2223 23.2381 25.2985 23.2381 25.3366C23.2381 25.4889 23.3143 25.6413 23.4286 25.7556C23.4667 25.7937 23.4667 25.7937 23.5048 25.8318C23.619 25.908 23.8095 25.9842 24 25.9842ZM27.619 29.6032L29.4857 27.7366C29.6381 27.5842 29.6762 27.4318 29.7143 27.2413C29.7143 27.2032 29.7143 27.127 29.7143 27.0889C29.7143 26.9366 29.6381 26.8223 29.5238 26.6699C29.4857 26.6318 29.4857 26.6318 29.4476 26.5937C29.2952 26.4794 29.1048 26.4032 28.9524 26.4032H24C23.581 26.4032 23.2381 26.7461 23.2381 27.1651C23.2381 27.5842 23.581 27.927 24 27.927H27.1238L26.5524 28.4985C26.4 28.6508 26.3238 28.8413 26.3238 29.0318C26.3238 29.2223 26.4 29.4127 26.5524 29.5651C26.7048 29.7175 26.8952 29.7937 27.0857 29.7937C27.2762 29.7937 27.4667 29.7556 27.619 29.6032Z" fill="white"/>
</svg>
