<svg width="7" height="7" viewBox="0 0 7 7" fill="none" xmlns="http://www.w3.org/2000/svg">
<path d="M3.72343 3.30412L1.03218 0.0606535C1.00056 0.0218751 0.951015 0 0.899362 0H0.0845027C0.0138745 0 -0.0251291 0.0765624 0.0180911 0.128267L2.81581 3.5L0.0180911 6.87173C0.00835789 6.88346 0.0023186 6.89753 0.000663708 6.91234C-0.000991189 6.92714 0.00180519 6.94209 0.00873295 6.95547C0.0156607 6.96885 0.0264404 6.98013 0.0398394 6.988C0.0532384 6.99587 0.068716 7.00003 0.0845027 7H0.899362C0.951015 7 1.00056 6.97713 1.03218 6.93935L3.72343 3.69687C3.81936 3.58054 3.81936 3.41946 3.72343 3.30412ZM6.92805 3.30412L4.23681 0.0606535C4.20518 0.0218751 4.15564 0 4.10398 0H3.28912C3.21849 0 3.17949 0.0765624 3.22271 0.128267L6.02043 3.5L3.22271 6.87173C3.21298 6.88346 3.20694 6.89753 3.20528 6.91234C3.20363 6.92714 3.20643 6.94209 3.21335 6.95547C3.22028 6.96885 3.23106 6.98013 3.24446 6.988C3.25786 6.99587 3.27334 7.00003 3.28912 7H4.10398C4.15564 7 4.20518 6.97713 4.23681 6.93935L6.92805 3.69687C7.02398 3.58054 7.02398 3.41946 6.92805 3.30412Z" fill="white"/>
</svg>
