<svg width="16" height="16" viewBox="0 0 16 16" fill="none" xmlns="http://www.w3.org/2000/svg">
<path d="M8 0C4.11653 0 0.88012 2.7674 0.15332 6.43749H2.37403C3.05827 3.97008 5.31471 2.15625 8 2.15625C9.61425 2.15625 11.073 2.81219 12.1289 3.87109L9.56251 6.43749H16V0L13.6563 2.34375C12.2087 0.895747 10.2093 0 8 0ZM0 9.56251V16L2.34375 13.6563C3.79128 15.1043 5.79069 16 8 16C11.8835 16 15.1199 13.2326 15.8467 9.56251H13.626C12.9417 12.0299 10.6853 13.8437 8 13.8437C6.38575 13.8437 4.92701 13.1878 3.87109 12.1289L6.43749 9.56251H0Z" fill="white"/>
</svg>
