<svg width="17" height="16" viewBox="0 0 17 16" fill="none" xmlns="http://www.w3.org/2000/svg">
<path d="M16.253 6.30833H16.0041V5.56113V2.90489C16.0041 2.03523 15.2966 1.32771 14.4269 1.32771H7.5878L2.9738 0.00941472C2.97247 0.00904949 2.97111 0.00885021 2.96978 0.00848498C2.96842 0.00811974 2.96713 0.00758854 2.96576 0.00725651C2.96297 0.00655924 2.96022 0.00622722 2.95746 0.00562956C2.95318 0.00473308 2.9489 0.00380339 2.94461 0.00310612C2.94073 0.00247527 2.93691 0.00207683 2.93303 0.00161198C2.92851 0.00108073 2.92403 0.000615888 2.91955 0.000350263C2.91589 0.000151045 2.91227 0.000117816 2.90862 5.14099e-05C2.90397 -1.49962e-05 2.89936 -4.81906e-05 2.89474 0.000151028C2.89132 0.00028384 2.8879 0.000615849 2.88452 0.000881474C2.87977 0.00127991 2.87502 0.0017116 2.87034 0.00240886C2.86715 0.0028737 2.864 0.00347135 2.86084 0.0040358C2.85599 0.00489908 2.85121 0.00582873 2.84647 0.00699084C2.84351 0.0077213 2.84062 0.0085514 2.8377 0.00938147C2.83285 0.010776 2.82807 0.0122037 2.82329 0.0138639C2.8206 0.0148268 2.81794 0.0158561 2.81525 0.0169186C2.81044 0.018778 2.80566 0.0207369 2.80098 0.0228951C2.79849 0.0240572 2.79606 0.0253189 2.79361 0.0265475C2.78892 0.0289049 2.78431 0.0312955 2.77979 0.033985C2.77744 0.0353463 2.77518 0.0368072 2.77285 0.0382682C2.7684 0.0410572 2.76402 0.0439127 2.75977 0.0470006C2.75755 0.0485943 2.75539 0.0503209 2.7532 0.0520142C2.74911 0.0551685 2.74506 0.0583892 2.74118 0.0618091C2.73899 0.0637349 2.7369 0.0657603 2.73477 0.0677525C2.73112 0.0712056 2.7275 0.0746587 2.72405 0.078311C2.72189 0.080602 2.71986 0.0829926 2.71777 0.0853833C2.71462 0.0890024 2.71149 0.0926548 2.70854 0.0964731C2.70641 0.099229 2.70442 0.102051 2.7024 0.104874C2.69977 0.108559 2.69718 0.112278 2.69479 0.116096C2.69274 0.11935 2.69084 0.122737 2.68895 0.12609C2.68686 0.129776 2.68477 0.133494 2.68287 0.137313C2.68101 0.141032 2.67935 0.14485 2.67766 0.148668C2.676 0.15242 2.67437 0.156172 2.67291 0.160024C2.67139 0.164075 2.67006 0.168225 2.6687 0.172409C2.66783 0.175098 2.66677 0.177621 2.66597 0.180344C2.66558 0.181705 2.66541 0.183033 2.66504 0.184362C2.66468 0.185723 2.66415 0.187018 2.66382 0.188379L2.37907 1.32764H1.57731C0.709417 1.32764 0.00312109 2.03231 0.000265625 2.89957C0.000232421 2.90137 0 2.90306 0 2.90482V11.5376C0 11.6751 0.111894 11.7866 0.249023 11.7866C0.386484 11.7866 0.498046 11.6751 0.498046 11.5376V4.05341C0.780405 4.31891 1.16005 4.48207 1.57731 4.48207H14.4269C14.4272 4.48207 14.4275 4.48203 14.4278 4.48203C15.0224 4.4825 15.506 4.9664 15.506 5.56117V7.30446H12.7664C12.7662 7.30446 12.7661 7.30449 12.7659 7.30449C12.7587 7.30449 12.7515 7.30492 12.7444 7.30555C12.7365 7.30625 12.7286 7.30738 12.7209 7.30881C12.7198 7.30901 12.7186 7.30911 12.7175 7.30934C12.711 7.31063 12.7046 7.31236 12.6982 7.31415C12.6969 7.31455 12.6954 7.31482 12.6941 7.31525C12.6884 7.31698 12.6829 7.31903 12.6775 7.32113C12.6754 7.32192 12.6732 7.32259 12.6712 7.32345C12.6666 7.32534 12.6622 7.32757 12.6577 7.32973C12.6548 7.33112 12.6519 7.33242 12.649 7.33391C12.6456 7.33574 12.6423 7.33783 12.639 7.33982C12.6353 7.34201 12.6315 7.34414 12.628 7.34653C12.6255 7.34812 12.6233 7.34995 12.621 7.35164C12.6167 7.35469 12.6124 7.35772 12.6084 7.36107C12.6066 7.36253 12.605 7.36416 12.6033 7.36565C12.599 7.36944 12.5946 7.37319 12.5905 7.37731C12.5881 7.37973 12.5859 7.38239 12.5836 7.38491C12.5804 7.3884 12.5771 7.39182 12.574 7.39553C12.5689 7.40181 12.564 7.40832 12.5595 7.41506C12.5594 7.41516 12.5593 7.41529 12.5593 7.41542L11.2312 9.40764C11.2219 9.42152 11.2141 9.43623 11.2079 9.45153C11.2055 9.45724 11.2036 9.46306 11.2017 9.46883C11.2012 9.47059 11.2005 9.47229 11.1999 9.47405C11.1981 9.48019 11.1966 9.4864 11.1953 9.49257C11.1949 9.4942 11.1944 9.49579 11.1941 9.49742C11.193 9.503 11.1923 9.50861 11.1916 9.51422C11.1913 9.51661 11.1908 9.519 11.1906 9.52143C11.1901 9.52604 11.19 9.53062 11.1899 9.53524C11.1897 9.53876 11.1894 9.54228 11.1894 9.54583C11.1894 9.54925 11.1897 9.55267 11.1898 9.55609C11.19 9.56081 11.1901 9.56555 11.1906 9.57027C11.1908 9.57256 11.1913 9.57485 11.1916 9.57714C11.1923 9.58285 11.193 9.58856 11.1941 9.59424C11.1944 9.5958 11.1949 9.59733 11.1953 9.59889C11.1966 9.60513 11.1981 9.61137 11.2 9.61758C11.2005 9.61934 11.2012 9.62104 11.2018 9.62283C11.2037 9.62861 11.2056 9.63442 11.2079 9.64013C11.2142 9.6554 11.222 9.67014 11.2313 9.68406L12.5593 11.676C12.5594 11.6761 12.5595 11.6761 12.5595 11.6762C12.5649 11.6842 12.5707 11.6917 12.5769 11.699C12.5789 11.7014 12.5811 11.7036 12.5832 11.7059C12.5874 11.7105 12.5918 11.715 12.5963 11.7192C12.599 11.7218 12.6017 11.7242 12.6044 11.7266C12.6092 11.7307 12.6142 11.7346 12.6194 11.7384C12.6217 11.7401 12.6239 11.7419 12.6263 11.7435C12.6338 11.7486 12.6415 11.7533 12.6495 11.7576C12.6515 11.7586 12.6536 11.7595 12.6556 11.7605C12.662 11.7637 12.6685 11.7667 12.6752 11.7693C12.6778 11.7703 12.6804 11.7712 12.683 11.7722C12.6893 11.7744 12.6958 11.7764 12.7024 11.7782C12.7051 11.7789 12.7077 11.7796 12.7104 11.7803C12.7172 11.7818 12.724 11.783 12.731 11.784C12.7335 11.7844 12.736 11.7849 12.7385 11.7852C12.7471 11.7861 12.7558 11.7867 12.7646 11.7867C12.7653 11.7867 12.766 11.7869 12.7667 11.7869C12.7668 11.7869 12.767 11.7868 12.7672 11.7868H15.5061V13.5303C15.5061 14.1253 15.022 14.6094 14.427 14.6094H1.57744C0.982445 14.6094 0.498345 14.1253 0.498345 13.5303C0.498345 13.529 0.498179 13.5277 0.498146 13.5264V12.5338C0.498146 12.3967 0.386583 12.2848 0.249123 12.2848C0.111994 12.2848 9.96092e-05 12.3967 9.96092e-05 12.5338V13.5303C9.96092e-05 13.5329 0.000398437 13.5354 0.000498046 13.5379C0.00464843 14.4041 0.710379 15.1075 1.57744 15.1075H14.427C15.2966 15.1075 16.004 14.4001 16.0042 13.5305C16.0042 13.5305 16.0042 13.5305 16.0042 13.5304V11.7868H16.2531C16.6649 11.7868 17 11.4518 17 11.0399V7.05527C16.9999 6.64342 16.6648 6.30833 16.253 6.30833ZM3.08456 0.559025L7.47862 1.81453C7.47882 1.8146 7.47906 1.81463 7.47926 1.8147L10.4242 2.65613H2.56042L3.08456 0.559025ZM15.506 4.41251C15.2237 4.14708 14.8441 3.98395 14.4269 3.98395C14.4265 3.98395 14.4261 3.98402 14.4256 3.98402H1.57731C0.982279 3.98402 0.498179 3.49992 0.498179 2.90489C0.498179 2.30986 0.982279 1.82575 1.57731 1.82575H2.25459L2.04707 2.65613H1.57738C1.43985 2.65613 1.32835 2.76763 1.32835 2.90515C1.32835 3.04268 1.43985 3.15418 1.57738 3.15418H2.24064C2.24097 3.15418 2.24134 3.15424 2.2417 3.15424C2.24197 3.15424 2.24224 3.15418 2.24247 3.15418H12.2014C12.2018 3.15418 12.2021 3.15424 12.2024 3.15424C12.2026 3.15424 12.2029 3.15418 12.2032 3.15418H14.0946C14.2321 3.15418 14.3436 3.04268 14.3436 2.90515C14.3436 2.76763 14.2321 2.65613 14.0946 2.65613H12.2371L9.33089 1.82575H14.4269C15.0219 1.82575 15.506 2.30986 15.506 2.90489V4.41251ZM16.5019 11.0398C16.5019 11.177 16.3902 11.2887 16.253 11.2887H12.8997L11.7376 9.5457L12.8997 7.80247H16.253C16.2565 7.80247 16.2598 7.80207 16.2633 7.80194C16.3468 7.80078 16.427 7.7859 16.5019 7.75941V11.0398ZM16.253 7.30416C16.2512 7.30416 16.2495 7.30439 16.2478 7.30443H16.0041V6.80638H16.253C16.3902 6.80638 16.5019 6.91804 16.5019 7.05527C16.5019 7.1925 16.3902 7.30416 16.253 7.30416Z" fill="white"/>
<path d="M13.7626 8.63257C13.2591 8.63257 12.8495 9.04219 12.8495 9.54569C12.8495 10.0492 13.2591 10.4588 13.7626 10.4588C14.2661 10.4588 14.6757 10.0492 14.6757 9.54569C14.6757 9.04219 14.2661 8.63257 13.7626 8.63257ZM13.7626 9.96072C13.5338 9.96072 13.3476 9.77455 13.3476 9.54569C13.3476 9.31682 13.5338 9.13061 13.7626 9.13061C13.9915 9.13061 14.1777 9.31682 14.1777 9.54569C14.1777 9.77455 13.9915 9.96072 13.7626 9.96072Z" fill="white"/>
</svg>
