<svg width="27" height="32" viewBox="0 0 27 32" fill="none" xmlns="http://www.w3.org/2000/svg">
<path d="M4.99349 24.2039C4.99349 25.0396 5.66514 25.7217 6.49153 25.7217H8.20409V30.0215C8.20409 31.1108 9.06564 32 10.1241 32C11.1861 32 12.0441 31.1143 12.0441 30.0215V25.7181H15.0332V30.0179C15.0332 31.1072 15.8948 31.9964 16.9532 31.9964C18.0152 31.9964 18.8733 31.1108 18.8733 30.0179V25.7181H20.5858C21.4122 25.7181 22.0839 25.036 22.0839 24.2003V10.0867H4.99349V24.2039ZM17.551 2.77273L19.13 0.451404C19.2214 0.315696 19.2003 0.133561 19.0772 0.0442793C18.9541 -0.0414312 18.7783 0.00142426 18.6869 0.137133L17.0482 2.55131C15.9686 2.11919 14.7659 1.87991 13.5035 1.87991C12.2411 1.87991 11.0384 2.11919 9.95884 2.55131L8.32013 0.140704C8.2287 0.00499547 8.05287 -0.041431 7.9298 0.0478508C7.80672 0.133561 7.78562 0.312124 7.87705 0.454975L9.45597 2.7763C6.94516 3.96196 5.1869 6.20829 4.96184 8.83317H22.0522C21.8201 6.20472 20.0583 3.95839 17.551 2.77273ZM9.89554 6.43328C9.70845 6.43328 9.52556 6.37694 9.37 6.27138C9.21444 6.16582 9.09319 6.01578 9.0216 5.84024C8.95 5.6647 8.93127 5.47154 8.96777 5.28519C9.00427 5.09884 9.09436 4.92766 9.22665 4.79331C9.35895 4.65896 9.5275 4.56746 9.711 4.5304C9.89449 4.49333 10.0847 4.51235 10.2575 4.58506C10.4304 4.65778 10.5781 4.78091 10.6821 4.93889C10.786 5.09687 10.8415 5.28261 10.8415 5.47261C10.8408 5.72719 10.741 5.97116 10.5637 6.15118C10.3865 6.3312 10.1462 6.43262 9.89554 6.43328ZM17.224 6.43328C17.0369 6.43328 16.854 6.37694 16.6985 6.27138C16.5429 6.16582 16.4217 6.01578 16.3501 5.84024C16.2785 5.6647 16.2597 5.47154 16.2962 5.28519C16.3327 5.09884 16.4228 4.92766 16.5551 4.79331C16.6874 4.65896 16.856 4.56746 17.0395 4.5304C17.223 4.49333 17.4132 4.51235 17.586 4.58506C17.7589 4.65778 17.9066 4.78091 18.0105 4.93889C18.1145 5.09687 18.17 5.28261 18.17 5.47261C18.1693 5.72719 18.0694 5.97116 17.8922 6.15118C17.7149 6.3312 17.4747 6.43262 17.224 6.43328ZM25.08 10.0295C24.018 10.0295 23.1599 10.9152 23.1599 12.008V19.7363C23.1599 20.8255 24.0215 21.7147 25.08 21.7147C26.142 21.7147 27 20.8291 27 19.7363V12.0045C27.0035 10.9117 26.1455 10.0295 25.08 10.0295ZM1.92003 10.0295C0.858035 10.0295 0 10.9152 0 12.008V19.7363C0 20.8255 0.861552 21.7147 1.92003 21.7147C2.98202 21.7147 3.84006 20.8291 3.84006 19.7363V12.0045C3.84006 10.9117 2.97851 10.0295 1.92003 10.0295Z" fill="#E2E2E2"/>
</svg>
