<svg width="40" height="25" viewBox="0 0 40 25" fill="none" xmlns="http://www.w3.org/2000/svg">
<path d="M33.6034 12.4176C33.5694 12.4176 33.5371 12.4249 33.5043 12.426C33.4904 12.4243 33.4781 12.4176 33.4653 12.4176C32.8032 12.4176 32.1655 12.6227 31.6215 12.9943C31.0763 12.6227 30.4392 12.4176 29.7776 12.4176C29.7637 12.4176 29.7526 12.4243 29.7386 12.426C29.7058 12.4249 29.6735 12.4176 29.6395 12.4176C27.8146 12.4176 26.3311 13.9106 26.3311 15.7467C26.3311 17.5822 27.8146 19.0753 29.6395 19.0753C29.6735 19.0753 29.7058 19.068 29.7386 19.0669C29.7526 19.068 29.7637 19.0753 29.7776 19.0753C30.4392 19.0753 31.0763 18.8702 31.6215 18.4986C32.1655 18.8702 32.8026 19.0753 33.4653 19.0753C33.4781 19.0753 33.4904 19.0686 33.5043 19.0669C33.5371 19.068 33.5694 19.0753 33.6034 19.0753C35.4272 19.0753 36.9119 17.5822 36.9119 15.7467C36.9119 13.9106 35.4272 12.4176 33.6034 12.4176ZM33.6034 18.0373C33.0259 18.0373 32.4724 17.8142 32.0458 17.4085C31.9261 17.2969 31.7718 17.2594 31.6215 17.2801C31.4711 17.2588 31.3157 17.2964 31.1971 17.4085C30.7694 17.8142 30.217 18.0373 29.6395 18.0373C28.3843 18.0373 27.3618 17.0094 27.3618 15.7467C27.3618 14.4834 28.3843 13.4555 29.6395 13.4555C30.217 13.4555 30.7694 13.6792 31.1971 14.0844C31.3157 14.1965 31.4711 14.2335 31.6215 14.2127C31.7718 14.234 31.9261 14.1965 32.0458 14.0844C32.4724 13.6792 33.0259 13.4555 33.6034 13.4555C34.8586 13.4555 35.88 14.4834 35.88 15.7467C35.88 17.0094 34.8586 18.0373 33.6034 18.0373Z" fill="white"/>
<path d="M8.54262 24.8889C3.83193 24.8889 0 21.0318 0 16.2914C0 11.5511 3.83193 7.69398 8.54262 7.69398C13.2522 7.69398 17.0852 11.5511 17.0852 16.2914C17.0852 21.0318 13.2522 24.8889 8.54262 24.8889ZM8.54262 8.7314C4.40051 8.7314 1.03135 12.1227 1.03135 16.2909C1.03135 20.459 4.40106 23.8504 8.54262 23.8504C12.6836 23.8504 16.0539 20.459 16.0539 16.2909C16.0539 12.1227 12.6831 8.7314 8.54262 8.7314Z" fill="white"/>
<path d="M38.4524 0H9.57458C8.72087 0 8.02588 0.698332 8.02588 1.55696V3.23161V7.0489C8.19907 7.03881 8.36836 7.02256 8.54267 7.02256C9.96997 7.02256 11.3154 7.35827 12.5205 7.94115H38.9692V20.2416C38.9692 20.5279 38.7387 20.7605 38.4524 20.7605H16.6108C16.412 21.1237 16.1831 21.4673 15.9387 21.7985H38.4524C39.3061 21.7985 40 21.1002 40 20.2416V7.42217V3.23105V1.5564C40 0.698333 39.3061 0 38.4524 0ZM38.9692 2.71263H9.05834V1.55696C9.05834 1.27056 9.2889 1.03797 9.57513 1.03797H38.4524C38.7387 1.03797 38.9692 1.27056 38.9692 1.55696V2.71263Z" fill="white"/>
<path d="M24.5291 17.8613C24.5291 17.5744 24.2985 17.3423 24.0134 17.3423H17.69C17.6499 17.6949 17.5864 18.0407 17.5095 18.3803H24.0139C24.2985 18.3798 24.5291 18.1477 24.5291 17.8613Z" fill="white"/>
<path d="M21.489 15.7467C21.489 15.4597 21.2585 15.2271 20.9734 15.2271H17.6877C17.7267 15.5684 17.7496 15.9142 17.7507 16.2656H20.9734C21.2585 16.2656 21.489 16.0331 21.489 15.7467Z" fill="white"/>
<path d="M13.0172 16.6042C12.7505 16.6042 12.5355 16.8216 12.5355 17.0895C12.5355 19.305 10.744 21.1075 8.54266 21.1075C6.34129 21.1075 4.55091 19.305 4.55091 17.0895C4.55091 15.0147 6.12578 13.3221 8.13279 13.1125L7.40606 13.8445C7.21783 14.0333 7.21783 14.341 7.40494 14.5294C7.49516 14.6213 7.616 14.6723 7.74631 14.6723C7.87384 14.6723 7.99524 14.6224 8.08768 14.5305L9.6787 12.9287C9.86693 12.7398 9.86693 12.4321 9.6787 12.2427L8.0888 10.642C7.90614 10.4587 7.58983 10.4598 7.4055 10.642C7.21727 10.8314 7.21727 11.1386 7.40661 11.3286L8.19182 12.1188C5.6218 12.3004 3.58472 14.4576 3.58472 17.0901C3.58472 19.8408 5.80891 22.0782 8.5421 22.0782C11.2742 22.0782 13.4995 19.8403 13.4995 17.0901C13.5 16.8222 13.2834 16.6042 13.0172 16.6042Z" fill="white"/>
</svg>
