<svg width="27" height="26" viewBox="0 0 27 26" fill="none" xmlns="http://www.w3.org/2000/svg">
<path fill-rule="evenodd" clip-rule="evenodd" d="M13.4279 0.802384C13.2345 0.809187 13.0435 0.848705 12.8627 0.916056L3.19836 4.51723C2.49525 4.77922 2.02189 5.4498 2.02189 6.19887V8.11137C1.32199 8.36144 0.812378 9.02378 0.812378 9.80004C0.812378 10.5754 1.3209 11.2368 2.01953 11.4875V22.5125C1.3209 22.7633 0.812378 23.4247 0.812378 24.2C0.812378 25.1869 1.63121 26 2.62488 26H11.0832C11.1633 26.0012 11.2428 25.9865 11.317 25.9568C11.3913 25.9272 11.459 25.8832 11.516 25.8273C11.573 25.7715 11.6183 25.705 11.6492 25.6316C11.6801 25.5583 11.696 25.4796 11.696 25.4C11.696 25.3205 11.6801 25.2418 11.6492 25.1685C11.6183 25.0951 11.573 25.0286 11.516 24.9728C11.459 24.9169 11.3913 24.8729 11.317 24.8433C11.2428 24.8136 11.1633 24.7989 11.0832 24.8H2.62488C2.27972 24.8 2.02071 24.5428 2.02071 24.2C2.02071 23.8573 2.27972 23.6 2.62488 23.6H7.60807C7.68813 23.6012 7.76762 23.5865 7.84191 23.5568C7.9162 23.5272 7.98382 23.4832 8.04084 23.4273C8.09785 23.3715 8.14312 23.305 8.17403 23.2316C8.20493 23.1583 8.22084 23.0796 8.22084 23C8.22084 22.9205 8.20493 22.8418 8.17403 22.7685C8.14312 22.6951 8.09785 22.6286 8.04084 22.5728C7.98382 22.5169 7.9162 22.4729 7.84191 22.4433C7.76762 22.4136 7.68813 22.3989 7.60807 22.4H5.64453V11.6H7.60925C7.68931 11.6012 7.7688 11.5865 7.84309 11.5568C7.91738 11.5272 7.985 11.4832 8.04202 11.4273C8.09903 11.3715 8.1443 11.305 8.17521 11.2316C8.20611 11.1583 8.22202 11.0796 8.22202 11C8.22202 10.9205 8.20611 10.8418 8.17521 10.7685C8.1443 10.6951 8.09903 10.6286 8.04202 10.5727C7.985 10.5169 7.91738 10.4729 7.84309 10.4433C7.7688 10.4136 7.68931 10.3989 7.60925 10.4H2.62488C2.27972 10.4 2.02071 10.1428 2.02071 9.80004C2.02071 9.45725 2.27972 9.20004 2.62488 9.20004H24.3749C24.72 9.20004 24.979 9.45725 24.979 9.80004C24.979 10.1428 24.72 10.4 24.3749 10.4H19.3917C19.3116 10.3989 19.2321 10.4136 19.1578 10.4433C19.0836 10.4729 19.0159 10.5169 18.9589 10.5727C18.9019 10.6286 18.8566 10.6951 18.8257 10.7685C18.7948 10.8418 18.7789 10.9205 18.7789 11C18.7789 11.0796 18.7948 11.1583 18.8257 11.2316C18.8566 11.305 18.9019 11.3715 18.9589 11.4273C19.0159 11.4832 19.0836 11.5272 19.1578 11.5568C19.2321 11.5865 19.3116 11.6012 19.3917 11.6H21.3529V22.4H19.3929C19.3128 22.3989 19.2333 22.4136 19.159 22.4433C19.0847 22.4729 19.0171 22.5169 18.9601 22.5728C18.9031 22.6286 18.8578 22.6951 18.8269 22.7685C18.796 22.8418 18.7801 22.9205 18.7801 23C18.7801 23.0796 18.796 23.1583 18.8269 23.2316C18.8578 23.305 18.9031 23.3715 18.9601 23.4273C19.0171 23.4832 19.0847 23.5272 19.159 23.5568C19.2333 23.5865 19.3128 23.6012 19.3929 23.6H24.3749C24.72 23.6 24.979 23.8573 24.979 24.2C24.979 24.5428 24.72 24.8 24.3749 24.8H13.4999C13.4198 24.7989 13.3403 24.8136 13.266 24.8433C13.1917 24.8729 13.1241 24.9169 13.0671 24.9728C13.0101 25.0286 12.9648 25.0951 12.9339 25.1685C12.903 25.2418 12.8871 25.3205 12.8871 25.4C12.8871 25.4796 12.903 25.5583 12.9339 25.6316C12.9648 25.705 13.0101 25.7715 13.0671 25.8273C13.1241 25.8832 13.1917 25.9272 13.266 25.9568C13.3403 25.9865 13.4198 26.0012 13.4999 26H24.3749C25.3686 26 26.1874 25.1869 26.1874 24.2C26.1874 23.4243 25.6782 22.763 24.979 22.5125V11.4875C25.6782 11.2371 26.1874 10.5758 26.1874 9.80004C26.1874 9.02507 25.6795 8.36359 24.9814 8.11254V6.19887C24.9814 5.44887 24.5067 4.77904 23.8038 4.51723L14.1347 0.916056C13.9072 0.831243 13.6665 0.793313 13.4279 0.802384ZM13.4727 2.00238C13.5563 2.00012 13.6356 2.0115 13.7099 2.03871L23.3789 5.63989C23.6175 5.72878 23.7731 5.95026 23.7731 6.19887V8.00004H3.23022V6.19887C3.23022 5.94933 3.38474 5.72871 3.62317 5.63989L13.2875 2.03871C13.3467 2.01604 13.4099 2.00465 13.4727 2.00238ZM3.22786 11.6H4.4362V22.4H3.22786V11.6ZM22.5612 11.6H23.7695V22.4H22.5612V11.6Z" fill="white"/>
<path fill-rule="evenodd" clip-rule="evenodd" d="M13.4926 12.7906C13.413 12.7916 13.3343 12.8081 13.2611 12.8393C13.188 12.8705 13.1217 12.9158 13.0662 12.9726C13.0107 13.0293 12.9671 13.0964 12.9378 13.17C12.9085 13.2435 12.8941 13.3221 12.8955 13.4012V14H12.2937C11.3 14 10.4777 14.8155 10.4777 15.8023C10.4777 16.7891 11.3 17.6 12.2937 17.6H12.8955V18.8012H12.2937C11.9486 18.8012 11.686 18.5416 11.686 18.1988C11.6878 18.1189 11.6735 18.0395 11.6439 17.9651C11.6144 17.8908 11.5702 17.823 11.5139 17.7659C11.4576 17.7087 11.3904 17.6633 11.3162 17.6323C11.242 17.6013 11.1623 17.5854 11.0819 17.5854C11.0014 17.5854 10.9217 17.6013 10.8475 17.6323C10.7733 17.6633 10.7061 17.7087 10.6498 17.7659C10.5936 17.823 10.5493 17.8908 10.5198 17.9651C10.4902 18.0395 10.4759 18.1189 10.4777 18.1988C10.4777 19.1856 11.3 20.0012 12.2937 20.0012H12.8955V20.5989C12.8938 20.6788 12.9081 20.7582 12.9376 20.8326C12.9672 20.9069 13.0114 20.9746 13.0677 21.0317C13.124 21.0889 13.1912 21.1343 13.2654 21.1653C13.3395 21.1963 13.4192 21.2123 13.4997 21.2123C13.5802 21.2123 13.6599 21.1963 13.7341 21.1653C13.8082 21.1343 13.8754 21.0889 13.9317 21.0317C13.988 20.9746 14.0322 20.9069 14.0618 20.8326C14.0913 20.7582 14.1057 20.6788 14.1039 20.5989V20.0012H14.7104C15.7041 20.0012 16.5205 19.1856 16.5205 18.1988C16.5205 17.212 15.7041 16.4 14.7104 16.4H14.1039V15.2H14.7104C15.0555 15.2 15.3122 15.4596 15.3122 15.8023C15.3157 15.9591 15.3809 16.1084 15.4938 16.2181C15.6067 16.3278 15.7584 16.3892 15.9164 16.3892C16.0743 16.3892 16.226 16.3278 16.3389 16.2181C16.4518 16.1084 16.517 15.9591 16.5205 15.8023C16.5205 14.8155 15.7041 14 14.7104 14H14.1039V13.4012C14.1053 13.3209 14.0905 13.2412 14.0603 13.1667C14.0301 13.0922 13.9852 13.0245 13.9282 12.9675C13.8712 12.9106 13.8033 12.8657 13.7285 12.8353C13.6537 12.8049 13.5735 12.7897 13.4926 12.7906ZM12.2937 15.2H12.8955V16.4H12.2937C11.9486 16.4 11.686 16.1451 11.686 15.8023C11.686 15.4596 11.9486 15.2 12.2937 15.2ZM14.1039 17.6H14.7104C15.0555 17.6 15.3122 17.8561 15.3122 18.1988C15.3122 18.5416 15.0555 18.8012 14.7104 18.8012H14.1039V17.6Z" fill="white"/>
<path fill-rule="evenodd" clip-rule="evenodd" d="M13.4991 10.398C9.83588 10.398 6.85388 13.3638 6.85388 17.0018C6.85388 20.6398 9.83588 23.6012 13.4991 23.6012C17.1624 23.6012 20.1444 20.6398 20.1444 17.0018C20.1444 13.3638 17.1624 10.398 13.4991 10.398ZM13.4991 11.5983C16.5093 11.5983 18.9357 14.0124 18.9357 17.0018C18.9357 19.9912 16.5093 22.4009 13.4991 22.4009C10.4889 22.4009 8.06251 19.9912 8.06251 17.0018C8.06251 14.0124 10.4889 11.5983 13.4991 11.5983Z" fill="white"/>
</svg>
