<svg width="25" height="27" viewBox="0 0 25 27" fill="none" xmlns="http://www.w3.org/2000/svg">
<path d="M23.9893 21.5687C23.363 20.0851 22.4541 18.7375 21.3132 17.601C20.1757 16.4611 18.8283 15.5524 17.3454 14.9248C17.3321 14.9182 17.3188 14.9148 17.3056 14.9082C19.3741 13.4141 20.7188 10.9803 20.7188 8.23438C20.7188 3.68555 17.0333 0 12.4845 0C7.93563 0 4.25008 3.68555 4.25008 8.23438C4.25008 10.9803 5.59481 13.4141 7.66336 14.9115C7.65008 14.9182 7.6368 14.9215 7.62352 14.9281C6.13602 15.5557 4.80126 16.4555 3.65575 17.6043C2.51592 18.7417 1.60713 20.0891 0.979575 21.5721C0.363067 23.0239 0.0305699 24.5804 8.30277e-05 26.1574C-0.000803181 26.1929 0.00541254 26.2281 0.0183641 26.2611C0.0313157 26.2941 0.0507409 26.3242 0.0754953 26.3496C0.10025 26.3749 0.129832 26.3951 0.1625 26.4089C0.195168 26.4226 0.23026 26.4297 0.265708 26.4297H2.2579C2.40399 26.4297 2.5202 26.3135 2.52352 26.1707C2.58993 23.6074 3.61922 21.2068 5.43876 19.3873C7.32137 17.5047 9.82157 16.4688 12.4845 16.4688C15.1474 16.4688 17.6475 17.5047 19.5302 19.3873C21.3497 21.2068 22.379 23.6074 22.4454 26.1707C22.4487 26.3168 22.5649 26.4297 22.711 26.4297H24.7032C24.7387 26.4297 24.7738 26.4226 24.8064 26.4089C24.8391 26.3951 24.8687 26.3749 24.8934 26.3496C24.9182 26.3242 24.9376 26.2941 24.9506 26.2611C24.9635 26.2281 24.9697 26.1929 24.9688 26.1574C24.9356 24.5703 24.6069 23.0264 23.9893 21.5687ZM12.4845 13.9453C10.9604 13.9453 9.52606 13.351 8.44696 12.2719C7.36786 11.1928 6.77352 9.7584 6.77352 8.23438C6.77352 6.71035 7.36786 5.27598 8.44696 4.19687C9.52606 3.11777 10.9604 2.52344 12.4845 2.52344C14.0085 2.52344 15.4429 3.11777 16.522 4.19687C17.6011 5.27598 18.1954 6.71035 18.1954 8.23438C18.1954 9.7584 17.6011 11.1928 16.522 12.2719C15.4429 13.351 14.0085 13.9453 12.4845 13.9453Z" fill="white"/>
</svg>
