<svg width="38" height="25" viewBox="0 0 38 25" fill="none" xmlns="http://www.w3.org/2000/svg">
<path d="M34.9064 7.77803H26.7239V1.62135C26.7239 0.729886 25.9694 0 25.0351 0H1.68874C0.75442 0 0 0.729886 0 1.62135V15.6062C0 16.4977 0.75442 17.2275 1.68874 17.2275H10.4168V22.8549C10.4168 24.0361 11.4208 25 12.651 25H34.9064C36.1425 25 37.1407 24.0361 37.1407 22.8549V9.92311C37.1407 8.74192 36.1367 7.77803 34.9064 7.77803ZM1.68874 16.1466C1.37537 16.1466 1.12583 15.9015 1.12583 15.6062V1.62135C1.12583 1.32605 1.37537 1.0809 1.68874 1.0809H25.0351C25.3427 1.0809 25.598 1.32605 25.598 1.62135V15.6062C25.598 15.9015 25.3485 16.1466 25.0351 16.1466H1.68874ZM36.0148 22.8549C36.0148 23.4455 35.5158 23.9191 34.9064 23.9191H12.651C12.0417 23.9191 11.5426 23.4399 11.5426 22.8549V17.2275H25.0409C25.9694 17.2275 26.7297 16.5032 26.7297 15.6062V14.4139H36.0206V22.8549H36.0148ZM36.0148 13.3385H26.7239V11.6503H36.0148V13.3385ZM36.0148 10.5639H26.7239V8.85892H34.9006C35.51 8.85892 36.009 9.33809 36.009 9.92311V10.5639H36.0148Z" fill="white"/>
<path d="M21.2399 3.55473C20.5958 3.55473 20.0096 3.80546 19.5744 4.21776C19.145 3.80546 18.553 3.55473 17.9031 3.55473C16.5973 3.55473 15.5295 4.57434 15.5295 5.83353C15.5295 7.08714 16.5915 8.11232 17.9031 8.11232C18.553 8.11232 19.145 7.85603 19.5744 7.4493C20.0096 7.8616 20.5958 8.11232 21.2399 8.11232C22.5456 8.11232 23.6076 7.09271 23.6076 5.8391C23.6076 4.57434 22.5456 3.55473 21.2399 3.55473ZM17.9031 7.02585C17.2183 7.02585 16.6554 6.49098 16.6554 5.82796C16.6554 5.1705 17.2125 4.63006 17.9031 4.63006C18.5878 4.63006 19.1508 5.16493 19.1508 5.82796C19.145 6.49098 18.5878 7.02585 17.9031 7.02585ZM21.2399 7.02585C20.7931 7.02585 20.3985 6.79185 20.1779 6.42969C20.2302 6.24026 20.2708 6.03968 20.2708 5.83353C20.2708 5.62738 20.2302 5.4268 20.1779 5.23736C20.3985 4.87521 20.7873 4.6412 21.2399 4.6412C21.9247 4.6412 22.4818 5.17608 22.4818 5.83353C22.4818 6.48541 21.9247 7.02585 21.2399 7.02585Z" fill="white"/>
<path d="M3.67937 5.48803H12.4655C12.7788 5.48803 13.0284 5.24846 13.0284 4.94759C13.0284 4.64673 12.7788 4.40715 12.4655 4.40715H3.67937C3.36599 4.40715 3.11646 4.64673 3.11646 4.94759C3.11646 5.24846 3.36599 5.48803 3.67937 5.48803Z" fill="white"/>
<path d="M3.67937 8.88116H12.4655C12.7788 8.88116 13.0284 8.6416 13.0284 8.34074C13.0284 8.03989 12.7788 7.80032 12.4655 7.80032H3.67937C3.36599 7.80032 3.11646 8.03989 3.11646 8.34074C3.11646 8.6416 3.36599 8.88116 3.67937 8.88116Z" fill="white"/>
<path d="M22.9229 12.5975H3.67937C3.36599 12.5975 3.11646 12.8371 3.11646 13.1379C3.11646 13.4388 3.36599 13.6784 3.67937 13.6784H22.9229C23.2362 13.6784 23.4858 13.4388 23.4858 13.1379C23.4858 12.8426 23.2304 12.5975 22.9229 12.5975Z" fill="white"/>
</svg>
