<svg width="21" height="20" viewBox="0 0 21 20" fill="none" xmlns="http://www.w3.org/2000/svg">
<path d="M20.58 3.77538C20.8337 3.58344 21 3.28272 21 2.94C21 2.66152 20.8894 2.39445 20.6925 2.19754C20.4955 2.00062 20.2285 1.89 19.95 1.89C19.6715 1.89 19.4044 2.00062 19.2075 2.19754C19.0106 2.39445 18.9 2.66152 18.9 2.94C18.9004 3.10228 18.9385 3.26225 19.0114 3.40724C19.0843 3.55223 19.19 3.67827 19.32 3.77538V10.29H15.54V13.65H19.74V13.5253C20.0501 13.4002 20.3157 13.1853 20.5028 12.9082C20.6899 12.6311 20.7899 12.3044 20.79 11.97C20.79 11.6798 20.7098 11.4106 20.58 11.1724V3.77538ZM2.52 6.51C2.94882 6.51 3.2466 6.58224 3.78 6.51C3.78 6.51 2.09328 7.62972 2.09328 9.03H4.2C4.2 9.03 4.20252 6.69732 5.46 5.25L5.04 4.83C5.04 4.83 4.2 5.25 3.36 4.83C3.36 4.83 2.52 4.83 1.68 5.25V4.83H1.26V7.35H1.68C1.68 7.35 1.68 6.51 2.52 6.51ZM8.4 6.51C8.82882 6.51 9.1266 6.58224 9.66 6.51C9.66 6.51 7.97328 7.62972 7.97328 9.03H10.08C10.08 9.03 10.0825 6.69732 11.34 5.25L10.92 4.83C10.92 4.83 10.08 5.25 9.24 4.83C9.24 4.83 8.4 4.83 7.56 5.25V4.83H7.14V7.35H7.56C7.56 7.35 7.56 6.51 8.4 6.51ZM15.96 2.31V1.47H10.8696C10.6781 0.62916 9.92922 0 9.03 0C8.13078 0 7.38192 0.62916 7.1904 1.47H2.1V2.31H0V19.53H18.48V2.31H15.96ZM6.72 3.99H11.76V9.87H6.72V3.99ZM0.84 3.99H5.88V9.87H0.84V3.99ZM15.96 17.43H2.1V14.49H15.96V17.43ZM17.64 9.87H12.6V3.99H17.64V9.87ZM14.28 6.51C14.7088 6.51 15.0066 6.58224 15.54 6.51C15.54 6.51 13.8533 7.62972 13.8533 9.03H15.96C15.96 9.03 15.9625 6.69732 17.22 5.25L16.8 4.83C16.8 4.83 15.96 5.25 15.12 4.83C15.12 4.83 14.28 4.83 13.44 5.25V4.83H13.02V7.35H13.44C13.44 7.35 13.44 6.51 14.28 6.51Z" fill="white"/>
</svg>
