<svg width="21" height="21" viewBox="0 0 21 21" fill="none" xmlns="http://www.w3.org/2000/svg">
<path d="M18.525 17.2711C18.5297 17.2641 18.5367 17.257 18.5414 17.25C20.0766 15.4242 21 13.0711 21 10.5C21 7.92891 20.0766 5.57578 18.5438 3.75C18.5391 3.74297 18.532 3.73828 18.5273 3.73125C18.5016 3.70078 18.4781 3.67266 18.4523 3.64453C18.443 3.63281 18.4336 3.62344 18.4242 3.61172L18.3281 3.50156L18.3258 3.49922C18.2906 3.45938 18.2531 3.41953 18.218 3.37969L18.2156 3.37734C18.1406 3.29766 18.0656 3.21797 17.9883 3.14062L17.9859 3.13828L17.8734 3.02578L17.8664 3.01875C17.8312 2.98359 17.7961 2.95078 17.7609 2.91797C17.7492 2.90625 17.7375 2.89453 17.7234 2.88281C17.7 2.85938 17.6766 2.83828 17.6531 2.81719C17.6461 2.81016 17.6367 2.80312 17.6297 2.79375C15.7594 1.05937 13.2539 0 10.5 0C7.74609 0 5.24062 1.05937 3.36797 2.79375C3.36094 2.80078 3.35156 2.80781 3.34453 2.81719C3.32109 2.83828 3.29766 2.86172 3.27422 2.88516C3.2625 2.89688 3.25078 2.90859 3.23672 2.92031C3.20156 2.95313 3.16641 2.98828 3.13125 3.02109L3.12422 3.02812L3.01172 3.14062L3.00937 3.14297C2.93203 3.22031 2.85703 3.3 2.78203 3.37969L2.77969 3.38203C2.74219 3.42188 2.70703 3.46172 2.67188 3.50156L2.66953 3.50391C2.63672 3.53906 2.60391 3.57656 2.57344 3.61406C2.56406 3.62578 2.55469 3.63516 2.54531 3.64688C2.51953 3.675 2.49609 3.70547 2.47031 3.73359C2.46562 3.74063 2.45859 3.74531 2.45391 3.75234C0.923437 5.57578 0 7.92891 0 10.5C0 13.0711 0.923438 15.4242 2.45625 17.25C2.46094 17.257 2.46797 17.2641 2.47266 17.2711L2.54531 17.3578C2.55469 17.3695 2.56406 17.3789 2.57344 17.3906L2.66953 17.5008C2.66953 17.5031 2.67188 17.5031 2.67188 17.5055C2.70703 17.5453 2.74219 17.5852 2.77969 17.6227L2.78203 17.625C2.85703 17.7047 2.93203 17.7844 3.00703 17.8617L3.00937 17.8641C3.04687 17.9016 3.08203 17.9391 3.11953 17.9742L3.12656 17.9813C3.20391 18.0586 3.28359 18.1336 3.36328 18.2062C5.24062 19.9406 7.74609 21 10.5 21C13.2539 21 15.7594 19.9406 17.632 18.2062C17.7119 18.1331 17.79 18.058 17.8664 17.9813L17.8734 17.9742C17.9109 17.9367 17.9484 17.9016 17.9836 17.8641L17.9859 17.8617C18.0633 17.7844 18.1383 17.7047 18.2109 17.625L18.2133 17.6227C18.2484 17.5828 18.2859 17.5453 18.3211 17.5055C18.3211 17.5031 18.3234 17.5031 18.3234 17.5008C18.3562 17.4656 18.3891 17.4281 18.4195 17.3906C18.4289 17.3789 18.4383 17.3695 18.4477 17.3578C18.4742 17.3296 18.4999 17.3006 18.525 17.2711ZM18.6211 13.9289C18.2977 14.693 17.8711 15.4008 17.3508 16.043C16.7648 15.5365 16.1241 15.0971 15.4406 14.7328C15.7125 13.6336 15.8813 12.4266 15.9258 11.1562H19.2891C19.2188 12.1148 18.9937 13.0453 18.6211 13.9289ZM19.2891 9.84375H15.9258C15.8813 8.57344 15.7125 7.36641 15.4406 6.26719C16.1273 5.90156 16.7672 5.46094 17.3508 4.95703C18.4818 6.34916 19.1584 8.05485 19.2891 9.84375ZM13.9289 2.37891C14.8594 2.77266 15.7055 3.31641 16.4508 4.00078C16.0178 4.36944 15.5518 4.69739 15.0586 4.98047C14.6906 3.92578 14.2195 3.00938 13.6711 2.27578C13.7578 2.30859 13.8445 2.34375 13.9289 2.37891ZM11.8055 18.7992C11.5898 18.968 11.3742 19.0969 11.1562 19.1836V14.8359C12.0862 14.9008 13.0008 15.1079 13.868 15.45C13.6734 16.0266 13.4484 16.5586 13.1883 17.0391C12.7805 17.7984 12.3023 18.4055 11.8055 18.7992ZM13.1883 3.96094C13.4461 4.44375 13.6734 4.97578 13.868 5.55C13.0008 5.89209 12.0862 6.09918 11.1562 6.16406V1.81875C11.3719 1.90547 11.5898 2.03203 11.8055 2.20312C12.3023 2.59453 12.7805 3.20156 13.1883 3.96094ZM11.1562 13.5211V11.1562H14.6133C14.5758 12.1922 14.4469 13.1977 14.2313 14.1516L14.2242 14.1797C13.2406 13.8067 12.2063 13.5847 11.1562 13.5211ZM11.1562 9.84375V7.47891C12.2297 7.41328 13.2609 7.18594 14.2242 6.82031L14.2313 6.84844C14.4469 7.80234 14.5758 8.80547 14.6133 9.84375H11.1562ZM9.84375 11.1562V13.5211C8.77031 13.5867 7.73906 13.8141 6.77578 14.1797L6.76875 14.1516C6.55312 13.1977 6.42422 12.1945 6.38672 11.1562H9.84375ZM6.38672 9.84375C6.42422 8.80781 6.55312 7.80234 6.76875 6.84844L6.77578 6.82031C7.73906 7.18594 8.76797 7.41328 9.84375 7.47891V9.84375H6.38672ZM9.84375 14.8359V19.1813C9.62813 19.0945 9.41016 18.968 9.19453 18.7969C8.69766 18.4055 8.21719 17.7961 7.80938 17.0367C7.55156 16.5539 7.32422 16.0219 7.12969 15.4477C8.00156 15.1055 8.90859 14.9016 9.84375 14.8359ZM9.84375 6.16406C8.91377 6.09918 7.99924 5.89209 7.13203 5.55C7.32656 4.97344 7.55156 4.44141 7.81172 3.96094C8.21953 3.20156 8.69766 2.59219 9.19687 2.20078C9.4125 2.03203 9.62813 1.90313 9.84609 1.81641V6.16406H9.84375ZM7.07109 2.37891C7.15781 2.34375 7.24219 2.30859 7.32891 2.27578C6.78047 3.00938 6.30937 3.92578 5.94141 4.98047C5.44922 4.69922 4.98281 4.37109 4.54922 4.00078C5.29453 3.31641 6.14063 2.77266 7.07109 2.37891ZM2.37891 7.07109C2.70234 6.30703 3.12891 5.59922 3.64922 4.95703C4.23281 5.46094 4.87266 5.90156 5.55938 6.26719C5.2875 7.36641 5.11875 8.57344 5.07422 9.84375H1.71094C1.78125 8.88516 2.00625 7.95469 2.37891 7.07109ZM1.71094 11.1562H5.07422C5.11875 12.4266 5.2875 13.6336 5.55938 14.7328C4.87589 15.0971 4.23521 15.5365 3.64922 16.043C2.51819 14.6508 1.84164 12.9451 1.71094 11.1562ZM7.07109 18.6211C6.14063 18.2273 5.29453 17.6836 4.54922 16.9992C4.98281 16.6289 5.44922 16.3031 5.94141 16.0195C6.30937 17.0742 6.78047 17.9906 7.32891 18.7242C7.24219 18.6914 7.15547 18.6562 7.07109 18.6211ZM13.9289 18.6211C13.8422 18.6562 13.7578 18.6914 13.6711 18.7242C14.2195 17.9906 14.6906 17.0742 15.0586 16.0195C15.5508 16.3008 16.0172 16.6289 16.4508 16.9992C15.7096 17.6807 14.8565 18.2294 13.9289 18.6211Z" fill="white"/>
</svg>
