<svg width="17" height="16" viewBox="0 0 17 16" fill="none" xmlns="http://www.w3.org/2000/svg">
<path d="M3.33331 8.66663V14.6666H14V8.66663" stroke="white" stroke-linecap="square"/>
<path fill-rule="evenodd" clip-rule="evenodd" d="M3.33332 1.33331L1.33332 4.66665C1.33124 5.59225 1.9662 6.39767 2.86671 6.61172C3.76723 6.82576 4.69668 6.39219 5.11132 5.56465C5.44649 6.23981 6.13521 6.66682 6.88898 6.66682C7.64276 6.66682 8.33148 6.23981 8.66665 5.56465C9.00183 6.23981 9.69054 6.66682 10.4443 6.66682C11.1981 6.66682 11.8868 6.23981 12.222 5.56465C12.6366 6.39219 13.5661 6.82576 14.4666 6.61172C15.3671 6.39767 16.0021 5.59225 16 4.66665L14 1.33331H3.33332Z" stroke="white" stroke-linecap="square"/>
<path d="M7.33331 14.6666V10.6666H9.99998V14.6666" stroke="white"/>
</svg>
