<svg width="16" height="18" viewBox="0 0 16 18" fill="none" xmlns="http://www.w3.org/2000/svg">
<path d="M11.5324 11.8555C12.0479 11.5708 12.6381 11.4088 13.2666 11.4088H13.2687C13.3326 11.4088 13.3625 11.3299 13.3156 11.2861C12.662 10.6832 11.9154 10.1963 11.1063 9.84525C11.0978 9.84088 11.0892 9.83869 11.0807 9.83431C12.4037 8.84671 13.2645 7.24161 13.2645 5.43066C13.2645 2.43066 10.9039 0 7.9915 0C5.07913 0 2.72068 2.43066 2.72068 5.43066C2.72068 7.24161 3.5814 8.84671 4.90656 9.83431C4.89804 9.83869 4.88952 9.84088 4.881 9.84525C3.92867 10.2591 3.07434 10.8526 2.33933 11.6102C1.60855 12.36 1.02676 13.2488 0.626416 14.227C0.232517 15.185 0.0199339 16.2113 5.32749e-05 17.2511C-0.000515362 17.2745 0.00347296 17.2977 0.0117834 17.3195C0.0200938 17.3412 0.032558 17.3611 0.0484417 17.3778C0.0643254 17.3945 0.0833072 17.4078 0.104268 17.4169C0.12523 17.426 0.147747 17.4307 0.170492 17.4307H1.44665C1.53826 17.4307 1.61496 17.354 1.61709 17.2599C1.6597 15.5693 2.31802 13.9861 3.4834 12.7861C4.68712 11.5445 6.28925 10.8613 7.99364 10.8613C9.20162 10.8613 10.3606 11.2051 11.3598 11.8489C11.3855 11.8655 11.4149 11.8748 11.4452 11.876C11.4755 11.8771 11.5056 11.8701 11.5324 11.8555ZM7.99364 9.19708C7.01787 9.19708 6.09963 8.80511 5.40723 8.09343C5.06655 7.74418 4.79647 7.3291 4.61255 6.8721C4.42863 6.4151 4.33451 5.92521 4.33559 5.43066C4.33559 4.42555 4.71695 3.47956 5.40723 2.76788C6.0975 2.0562 7.01574 1.66423 7.99364 1.66423C8.97153 1.66423 9.88764 2.0562 10.58 2.76788C10.9207 3.11713 11.1908 3.53221 11.3747 3.98921C11.5586 4.44621 11.6528 4.9361 11.6517 5.43066C11.6517 6.43577 11.2703 7.38175 10.58 8.09343C9.88764 8.80511 8.9694 9.19708 7.99364 9.19708ZM15.8296 14.4088H14.04V12.5693C14.04 12.473 13.9633 12.3942 13.8695 12.3942H12.6764C12.5827 12.3942 12.506 12.473 12.506 12.5693V14.4088H10.7164C10.6227 14.4088 10.546 14.4876 10.546 14.5839V15.8102C10.546 15.9066 10.6227 15.9854 10.7164 15.9854H12.506V17.8248C12.506 17.9212 12.5827 18 12.6764 18H13.8695C13.9633 18 14.04 17.9212 14.04 17.8248V15.9854H15.8296C15.9233 15.9854 16 15.9066 16 15.8102V14.5839C16 14.4876 15.9233 14.4088 15.8296 14.4088Z" fill="white"/>
</svg>
