<svg width="17" height="14" viewBox="0 0 17 14" fill="none" xmlns="http://www.w3.org/2000/svg">
<path d="M13.6042 13.4375H16.4375V10.3754C16.4373 10.0858 16.2609 9.8255 15.992 9.71807L13.3414 8.65557C13.0729 8.54832 12.8966 8.28872 12.8958 7.99965V7.37773C13.7702 6.87595 14.3103 5.94565 14.3125 4.93753V3.52086C14.3127 2.50849 13.7728 1.57292 12.8961 1.06664C12.0194 0.560362 10.9392 0.560301 10.0625 1.06648" stroke="#E0E0E0" stroke-linecap="round" stroke-linejoin="round"/>
<path fill-rule="evenodd" clip-rule="evenodd" d="M10.3253 10.4264L7.67473 9.36392C7.40629 9.25667 7.22995 8.99707 7.22919 8.708V8.38854C9.54544 8.079 10.0625 7.06254 10.0625 7.06254C10.0625 7.06254 8.64585 5.64587 8.64585 4.22921C8.64585 2.6644 7.37733 1.39587 5.81252 1.39587C4.24771 1.39587 2.97919 2.6644 2.97919 4.22921C2.97919 5.64587 1.56252 7.06254 1.56252 7.06254C1.56252 7.06254 2.0796 8.079 4.39585 8.38854V8.708C4.39567 8.99758 4.21923 9.2579 3.95031 9.36533L1.29973 10.4278C1.03129 10.5351 0.854948 10.7947 0.854187 11.0837V13.4375H10.7709V11.0837C10.7707 10.7942 10.5942 10.5339 10.3253 10.4264Z" stroke="#E0E0E0" stroke-linecap="round" stroke-linejoin="round"/>
</svg>
