<svg width="12" height="12" viewBox="0 0 12 12" fill="none" xmlns="http://www.w3.org/2000/svg">
<path d="M6.11753 5.68821L1.8335 0.525139C1.78316 0.46341 1.70429 0.428589 1.62207 0.428589H0.324944C0.212516 0.428589 0.150428 0.550464 0.219228 0.632769L4.67274 6.00002L0.219228 11.3673C0.203734 11.3859 0.194121 11.4083 0.191486 11.4319C0.188852 11.4555 0.193303 11.4793 0.204331 11.5006C0.215359 11.5219 0.232518 11.5398 0.253847 11.5523C0.275177 11.5649 0.299814 11.5715 0.324944 11.5714H1.62207C1.70429 11.5714 1.78316 11.535 1.8335 11.4749L6.11753 6.31341C6.27023 6.12822 6.27023 5.87181 6.11753 5.68821ZM11.2188 5.68821L6.93473 0.525139C6.88439 0.46341 6.80552 0.428589 6.7233 0.428589H5.42618C5.31375 0.428589 5.25166 0.550464 5.32046 0.632769L9.77397 6.00002L5.32046 11.3673C5.30497 11.3859 5.29535 11.4083 5.29272 11.4319C5.29008 11.4555 5.29454 11.4793 5.30556 11.5006C5.31659 11.5219 5.33375 11.5398 5.35508 11.5523C5.37641 11.5649 5.40105 11.5715 5.42618 11.5714H6.7233C6.80552 11.5714 6.88439 11.535 6.93473 11.4749L11.2188 6.31341C11.3715 6.12822 11.3715 5.87181 11.2188 5.68821Z" fill="white"/>
</svg>
