<svg width="23" height="23" viewBox="0 0 23 23" fill="none" xmlns="http://www.w3.org/2000/svg">
<path d="M19.7325 4.28374C20.2155 4.86162 20.6022 5.49268 20.894 6.15537C20.457 6.67836 19.8483 7.02907 19.1766 7.14492C18.505 7.26077 17.814 7.13423 17.227 6.78787L19.7325 4.28374ZM18.7162 3.26743L16.2107 5.77299C15.8643 5.18597 15.7378 4.49499 15.8536 3.82333C15.9695 3.15166 16.3202 2.543 16.8432 2.10593C17.5073 2.39774 18.1369 2.78443 18.7162 3.26743ZM20.2989 13.6347C21.4368 11.8712 21.8277 9.72792 21.3857 7.67624C20.6535 8.26313 19.7499 8.59536 18.812 8.6226C17.874 8.64983 16.9527 8.37059 16.1877 7.82718L15.3395 8.6753L20.2989 13.6347ZM15.1714 6.81087C14.6285 6.04583 14.3497 5.12474 14.3772 4.18706C14.4047 3.24939 14.737 2.34622 15.3237 1.6143C13.2721 1.17224 11.1288 1.56314 9.36529 2.70105L14.3247 7.66043L15.1728 6.8123L15.1714 6.81087ZM8.22823 3.59518C7.42562 4.35099 6.79047 5.26675 6.36379 6.2833C8.27998 6.84393 10.6001 7.80849 12.5048 9.47743L13.3069 8.6753L8.22679 3.59518H8.22823ZM13.5254 10.4909L14.3247 9.69162L19.4048 14.7717C18.6558 15.5654 17.7509 16.1958 16.7469 16.6232C16.1862 14.7027 15.2145 12.3869 13.5269 10.4909H13.5254ZM15.8369 19.2251C15.8355 20.7014 14.5072 21.8284 12.9691 21.5007C10.843 21.0479 7.61298 20.0272 5.32448 17.7387C3.04317 15.4574 2.00385 12.2259 1.53523 10.0912C1.49538 9.91091 1.47514 9.7268 1.47485 9.54212C1.47485 8.07012 2.79735 6.93737 4.33835 7.25937C6.48885 7.7093 9.75773 8.72562 12.0477 11.017C14.3419 13.3112 15.3453 16.5701 15.7852 18.7076C15.8197 18.883 15.8369 19.0569 15.8369 19.2251ZM8.05573 12.7894C7.92096 12.6545 7.73809 12.5786 7.54736 12.5784C7.35663 12.5783 7.17366 12.6539 7.0387 12.7887C6.90374 12.9235 6.82784 13.1063 6.8277 13.2971C6.82757 13.4878 6.90321 13.6708 7.03798 13.8057L9.19423 15.962C9.329 16.097 9.51187 16.1729 9.7026 16.173C9.89333 16.1731 10.0763 16.0975 10.2113 15.9627C10.3462 15.8279 10.4221 15.6451 10.4223 15.4543C10.4224 15.2636 10.3468 15.0806 10.212 14.9457L8.05573 12.7894Z" fill="white"/>
</svg>
