<svg width="75" height="66" viewBox="0 0 75 66" fill="none" xmlns="http://www.w3.org/2000/svg">
<path d="M71.0043 27.5592H69.917V24.2949V12.6906C69.917 8.89132 66.826 5.80036 63.0269 5.80036H33.1488L12.9916 0.0411301C12.9858 0.0395345 12.9799 0.0386639 12.9741 0.0370683C12.9681 0.0354727 12.9625 0.033152 12.9565 0.0317015C12.9443 0.0286553 12.9323 0.0272048 12.9203 0.0245939C12.9015 0.0206774 12.8828 0.0166159 12.8641 0.0135697C12.8472 0.0108137 12.8305 0.00907302 12.8135 0.00704227C12.7938 0.0047214 12.7742 0.00269063 12.7546 0.00153019C12.7387 0.00065987 12.7228 0.000514703 12.7069 0.000224594C12.6866 -6.55138e-05 12.6664 -0.00021053 12.6463 0.000659794C12.6313 0.00124001 12.6164 0.00269046 12.6016 0.00385089C12.5808 0.00559154 12.5601 0.00747745 12.5396 0.0105236C12.5257 0.0125543 12.5119 0.0151653 12.4982 0.0176312C12.477 0.0214026 12.4561 0.025464 12.4353 0.0305409C12.4224 0.033732 12.4098 0.0373585 12.397 0.0409848C12.3759 0.0470771 12.355 0.0533145 12.3341 0.0605672C12.3223 0.0647737 12.3107 0.0692706 12.299 0.0739123C12.278 0.0820353 12.2571 0.0905933 12.2366 0.100022C12.2257 0.105099 12.2152 0.110611 12.2044 0.115978C12.184 0.126277 12.1638 0.136721 12.1441 0.14847C12.1338 0.154417 12.1239 0.1608 12.1138 0.167182C12.0943 0.179367 12.0752 0.191841 12.0566 0.205331C12.0469 0.212294 12.0375 0.219837 12.0279 0.227234C12.01 0.241015 11.9923 0.255085 11.9754 0.270025C11.9658 0.278439 11.9567 0.287287 11.9474 0.29599C11.9314 0.311076 11.9156 0.326161 11.9005 0.342117C11.8911 0.352126 11.8823 0.36257 11.8731 0.373014C11.8593 0.388825 11.8457 0.404781 11.8328 0.421462C11.8235 0.433501 11.8148 0.445831 11.806 0.458161C11.7945 0.474262 11.7832 0.490508 11.7727 0.507189C11.7637 0.521404 11.7555 0.5362 11.7472 0.55085C11.7381 0.566951 11.7289 0.583197 11.7207 0.599878C11.7125 0.616124 11.7053 0.632806 11.6979 0.649487C11.6906 0.665878 11.6835 0.682269 11.6771 0.699095C11.6705 0.716792 11.6647 0.734924 11.6587 0.753201C11.655 0.76495 11.6503 0.775974 11.6468 0.787869C11.6451 0.793816 11.6444 0.799618 11.6428 0.80542C11.6412 0.811367 11.6389 0.817025 11.6374 0.822972L10.3934 5.80007H6.8908C3.09923 5.80007 0.0136351 8.87855 0.00116043 12.6674C0.00101538 12.6752 0 12.6826 0 12.6903V50.4044C0 51.0049 0.488832 51.4923 1.08791 51.4923C1.68843 51.4923 2.17581 51.0049 2.17581 50.4044V17.7081C3.40935 18.868 5.0679 19.5808 6.8908 19.5808H63.0269C63.0282 19.5808 63.0294 19.5806 63.0307 19.5806C65.6283 19.5827 67.7411 21.6967 67.7411 24.2951V31.911H55.7724C55.7717 31.911 55.7711 31.9111 55.7704 31.9111C55.7389 31.9111 55.7076 31.913 55.6764 31.9158C55.6417 31.9188 55.6075 31.9237 55.5739 31.93C55.5688 31.9308 55.5639 31.9313 55.5588 31.9323C55.5303 31.938 55.5025 31.9455 55.4748 31.9533C55.4687 31.9551 55.4625 31.9562 55.4565 31.9581C55.4319 31.9657 55.4079 31.9747 55.384 31.9838C55.3748 31.9873 55.3656 31.9902 55.3564 31.9939C55.3364 32.0022 55.3171 32.0119 55.2978 32.0214C55.2851 32.0275 55.2721 32.0331 55.2597 32.0396C55.2446 32.0476 55.2304 32.0568 55.2159 32.0655C55.1998 32.075 55.1834 32.0843 55.1677 32.0948C55.1571 32.1017 55.1474 32.1097 55.1372 32.1171C55.1187 32.1304 55.1 32.1436 55.0823 32.1583C55.0746 32.1647 55.0675 32.1718 55.0601 32.1783C55.0411 32.1948 55.0221 32.2112 55.0041 32.2292C54.9935 32.2398 54.9839 32.2514 54.9739 32.2624C54.9598 32.2777 54.9453 32.2926 54.932 32.3089C54.9095 32.3363 54.8885 32.3647 54.8688 32.3941C54.8683 32.3946 54.8679 32.3952 54.8676 32.3957L49.0657 41.0991C49.0252 41.1598 48.991 41.224 48.9639 41.2909C48.9536 41.3158 48.9453 41.3412 48.9371 41.3665C48.9346 41.3742 48.9314 41.3816 48.9291 41.3892C48.921 41.4161 48.9147 41.4432 48.9088 41.4702C48.9072 41.4773 48.9051 41.4843 48.9037 41.4914C48.8989 41.5157 48.8957 41.5402 48.8927 41.5648C48.8914 41.5752 48.8893 41.5856 48.8883 41.5962C48.8863 41.6164 48.8858 41.6364 48.8851 41.6566C48.8844 41.672 48.8831 41.6873 48.8831 41.7029C48.8831 41.7178 48.8844 41.7327 48.885 41.7477C48.8857 41.7683 48.8863 41.789 48.8883 41.8096C48.8893 41.8196 48.8912 41.8296 48.8925 41.8396C48.8957 41.8646 48.8989 41.8895 48.9038 41.9143C48.9051 41.9212 48.9072 41.9278 48.9088 41.9347C48.9147 41.9619 48.9211 41.9892 48.9292 42.0163C48.9315 42.024 48.9347 42.0314 48.9372 42.0392C48.9455 42.0645 48.9537 42.0899 48.964 42.1148C48.9913 42.1815 49.0255 42.2459 49.0661 42.3067L54.8679 51.0088C54.8682 51.0092 54.8685 51.0095 54.8688 51.01C54.8921 51.0446 54.9176 51.0777 54.9446 51.1095C54.9535 51.1199 54.9629 51.1296 54.972 51.1395C54.9905 51.1597 55.0096 51.1791 55.0295 51.1978C55.0412 51.2088 55.0528 51.2196 55.0647 51.2299C55.0859 51.248 55.1078 51.265 55.1303 51.2815C55.1404 51.2889 55.1502 51.297 55.1605 51.304C55.1931 51.3262 55.2269 51.3466 55.2618 51.3652C55.2707 51.3698 55.2798 51.3738 55.2887 51.3781C55.3165 51.392 55.345 51.4049 55.3741 51.4164C55.3854 51.4209 55.3967 51.425 55.4082 51.429C55.4359 51.4389 55.4641 51.4476 55.4928 51.4553C55.5045 51.4583 55.5161 51.4615 55.528 51.4644C55.5575 51.4712 55.5873 51.4765 55.6177 51.4808C55.6287 51.4824 55.6396 51.4846 55.6506 51.4859C55.688 51.4901 55.726 51.4924 55.7646 51.4927C55.7677 51.4927 55.7707 51.4933 55.7739 51.4933C55.7745 51.4933 55.7752 51.4931 55.7759 51.4931H67.7416V59.1096C67.7416 61.7093 65.6267 63.8242 63.0273 63.8242H6.89138C4.29201 63.8242 2.17712 61.7093 2.17712 59.1096C2.17712 59.104 2.17639 59.0985 2.17625 59.0928V54.7566C2.17625 54.1575 1.68887 53.6687 1.08834 53.6687C0.489267 53.6687 0.000435162 54.1575 0.000435162 54.7566V59.1096C0.000435162 59.121 0.00174065 59.132 0.00217581 59.1431C0.0203076 62.927 3.10343 66 6.89138 66H63.0273C66.8261 66 69.9168 62.9096 69.9174 59.1108C69.9174 59.1107 69.9174 59.1105 69.9174 59.1102V51.4931H71.0047C72.804 51.4931 74.2679 50.0293 74.2679 48.23V30.8223C74.2674 29.0231 72.8035 27.5592 71.0043 27.5592ZM13.4755 2.44221L32.6718 7.92714C32.6727 7.92743 32.6737 7.92758 32.6746 7.92787L45.5403 11.6038H11.1857L13.4755 2.44221ZM67.741 19.2769C66.5076 18.1173 64.8493 17.4047 63.0269 17.4047C63.025 17.4047 63.0233 17.405 63.0212 17.405H6.8908C4.29128 17.405 2.17639 15.2901 2.17639 12.6906C2.17639 10.0911 4.29128 7.97617 6.8908 7.97617H9.84961L8.94302 11.6038H6.89109C6.29027 11.6038 5.80318 12.0909 5.80318 12.6917C5.80318 13.2926 6.29027 13.7796 6.89109 13.7796H9.78869C9.79014 13.7796 9.79173 13.7799 9.79333 13.7799C9.79449 13.7799 9.79565 13.7796 9.79667 13.7796H53.3043C53.3058 13.7796 53.3071 13.7799 53.3084 13.7799C53.3096 13.7799 53.3107 13.7796 53.3119 13.7796H61.575C62.1759 13.7796 62.6629 13.2926 62.6629 12.6917C62.6629 12.0909 62.1759 11.6038 61.575 11.6038H53.4603L40.7638 7.97617H63.0267C65.6261 7.97617 67.741 10.0911 67.741 12.6906V19.2769ZM72.0916 48.2294C72.0916 48.8289 71.6038 49.3167 71.0043 49.3167H56.3547L51.2779 41.7023L56.3547 34.0866H71.0043C71.0195 34.0866 71.0343 34.0849 71.0494 34.0843C71.4143 34.0792 71.7648 34.0143 72.0916 33.8985V48.2294ZM71.0043 31.9097C70.9967 31.9097 70.9893 31.9107 70.9818 31.9108H69.917V29.735H71.0043C71.6038 29.735 72.0916 30.2228 72.0916 30.8223C72.0916 31.4219 71.6038 31.9097 71.0043 31.9097Z" fill="white"/>
<path d="M60.1251 37.7131C57.9255 37.7131 56.1361 39.5026 56.1361 41.7022C56.1361 43.9018 57.9255 45.6912 60.1251 45.6912C62.3247 45.6912 64.1141 43.9018 64.1141 41.7022C64.1141 39.5026 62.3247 37.7131 60.1251 37.7131ZM60.1251 43.5154C59.1252 43.5154 58.3119 42.7021 58.3119 41.7022C58.3119 40.7023 59.1252 39.8889 60.1251 39.8889C61.125 39.8889 61.9383 40.7023 61.9383 41.7022C61.9383 42.7021 61.125 43.5154 60.1251 43.5154Z" fill="white"/>
</svg>
