<svg width="32" height="32" viewBox="0 0 32 32" fill="none" xmlns="http://www.w3.org/2000/svg">
<path d="M16.8889 19.2V23.8096L18.6899 22.0085L19.9469 23.2655L16 27.2127L12.0531 23.2655L13.3101 22.0085L15.1111 23.8096V19.2H16.8889ZM16 5.53247C16.3035 5.53285 16.5945 5.6536 16.8091 5.86825C17.0237 6.0829 17.1445 6.3739 17.1448 6.67743H18.9226C18.9217 6.05797 18.7244 5.45475 18.3589 4.95456C17.9935 4.45438 17.4788 4.08302 16.8889 3.89393V2.89514H15.1111V3.86697C14.5296 3.99909 14.0108 4.32616 13.6409 4.79385C13.2709 5.26155 13.0721 5.84173 13.0774 6.43802C13.0774 7.9507 14.4389 8.79167 15.533 9.46736C16.3253 9.95677 17.1448 10.463 17.1448 10.9842C17.1448 11.8462 16.1913 11.8898 16 11.8898C15.6965 11.8894 15.4055 11.7687 15.1909 11.5541C14.9763 11.3395 14.8555 11.0485 14.8552 10.745H13.0774C13.0783 11.3644 13.2757 11.9676 13.6411 12.4677C14.0065 12.9679 14.5212 13.3392 15.1111 13.5283V14.5273H16.8889V13.5553C17.4704 13.4231 17.9892 13.0961 18.3591 12.6284C18.7291 12.1607 18.9279 11.5805 18.9226 10.9842C18.9226 9.47153 17.5611 8.63056 16.467 7.95487C15.6747 7.46546 14.8552 6.95921 14.8552 6.43803C14.8552 5.57605 15.8087 5.53247 16 5.53247ZM16 17.4222C14.2771 17.4222 12.5929 16.9113 11.1604 15.9541C9.72783 14.9969 8.61131 13.6365 7.95198 12.0447C7.29266 10.453 7.12015 8.70145 7.45627 7.01166C7.79239 5.32187 8.62204 3.7697 9.84031 2.55143C11.0586 1.33316 12.6108 0.503506 14.3005 0.167385C15.9903 -0.168735 17.7419 0.00377439 19.3336 0.663098C20.9253 1.32242 22.2858 2.43895 23.243 3.87148C24.2002 5.30402 24.7111 6.98822 24.7111 8.71111C24.7085 11.0206 23.7899 13.2348 22.1568 14.8679C20.5237 16.501 18.3095 17.4196 16 17.4222ZM22.9333 8.71111C22.9333 7.33983 22.5267 5.99934 21.7649 4.85916C21.003 3.71898 19.9202 2.83032 18.6533 2.30555C17.3864 1.78078 15.9923 1.64348 14.6474 1.911C13.3024 2.17853 12.067 2.83886 11.0974 3.80851C10.1277 4.77815 9.46741 6.01355 9.19989 7.35849C8.93236 8.70342 9.06967 10.0975 9.59443 11.3644C10.1192 12.6313 11.0079 13.7141 12.148 14.476C13.2882 15.2378 14.6287 15.6444 16 15.6444C17.8382 15.6424 19.6005 14.9112 20.9003 13.6114C22.2001 12.3116 22.9312 10.5493 22.9333 8.71111ZM30.2222 30.2222H1.77778V22.4H2.56774e-09V31.1111C-8.87016e-06 31.2278 0.0229769 31.3434 0.0676446 31.4513C0.112312 31.5591 0.177787 31.6571 0.26033 31.7397C0.342872 31.8222 0.440866 31.8877 0.548715 31.9324C0.656564 31.977 0.772156 32 0.888889 32H31.1111C31.2278 32 31.3434 31.977 31.4513 31.9324C31.5591 31.8877 31.6571 31.8222 31.7397 31.7397C31.8222 31.6571 31.8877 31.5591 31.9324 31.4513C31.977 31.3434 32 31.2278 32 31.1111V22.4H30.2222V30.2222Z" fill="white"/>
</svg>
