<svg width="9" height="9" viewBox="0 0 9 9" fill="none" xmlns="http://www.w3.org/2000/svg">
<path d="M4.5 0.75C2.43225 0.75 0.75 2.09588 0.75 3.75C0.75 4.8405 1.46175 5.81812 2.625 6.35025V8.25L4.6275 6.74813C6.63637 6.6945 8.25 5.37 8.25 3.75C8.25 2.09588 6.56775 0.75 4.5 0.75ZM4.5 6H4.37512L3.375 6.75V5.84363L3.13462 5.751C2.12625 5.36287 1.5 4.596 1.5 3.75C1.5 2.50912 2.84588 1.5 4.5 1.5C6.15412 1.5 7.5 2.50912 7.5 3.75C7.5 4.99088 6.15412 6 4.5 6Z" fill="#9A89AD"/>
<path d="M2.625 2.625H6.375V3.375H2.625V2.625ZM2.625 4.125H5.25V4.875H2.625V4.125Z" fill="#9A89AD"/>
</svg>
