<svg width="32" height="32" viewBox="0 0 32 32" fill="none" xmlns="http://www.w3.org/2000/svg">
<path d="M16 0C12.4523 0.00257268 9.00592 1.18387 6.2026 3.35825L2.84444 8.884e-05V8.53342H11.3778L7.97556 5.13116C10.4206 3.32629 13.4028 2.39851 16.4403 2.49774C19.4778 2.59697 22.3931 3.71741 24.7151 5.67803C27.0372 7.63865 28.6304 10.3249 29.2373 13.3028C29.8442 16.2806 29.4294 19.3761 28.0599 22.0891C26.6903 24.8021 24.4461 26.9741 21.6897 28.2542C18.9334 29.5343 15.8259 29.8476 12.8695 29.1436C9.9131 28.4396 7.28039 26.7594 5.39679 24.3744C3.51318 21.9895 2.4887 19.0391 2.48889 16H0C0 19.1645 0.938383 22.2579 2.69649 24.8891C4.45459 27.5203 6.95345 29.5711 9.87706 30.7821C12.8007 31.9931 16.0177 32.3099 19.1214 31.6926C22.2251 31.0752 25.0761 29.5513 27.3137 27.3137C29.5513 25.0761 31.0752 22.2251 31.6926 19.1214C32.3099 16.0177 31.9931 12.8007 30.7821 9.87706C29.5711 6.95344 27.5203 4.45459 24.8891 2.69649C22.2579 0.938383 19.1645 0 16 0Z" fill="white"/>
<path d="M22.9232 9.07646C22.7899 8.94312 22.609 8.86822 22.4205 8.86823C22.2319 8.86823 22.051 8.94315 21.9177 9.0765L16.6569 14.3376C16.3986 14.2316 16.1191 14.1875 15.8408 14.2086C15.5624 14.2297 15.2928 14.3155 15.0534 14.4591C14.814 14.6027 14.6115 14.8003 14.4619 15.036C14.3123 15.2717 14.2197 15.539 14.1917 15.8168C14.1636 16.0946 14.2007 16.375 14.3001 16.6359C14.3995 16.8968 14.5584 17.1309 14.7642 17.3195C14.97 17.5081 15.217 17.6462 15.4855 17.7225C15.754 17.7989 16.0367 17.8116 16.3109 17.7595L19.3067 22.2898C19.4112 22.4459 19.5733 22.5542 19.7575 22.5912C19.9417 22.6282 20.133 22.5908 20.2897 22.4872C20.4464 22.3835 20.5557 22.2221 20.5938 22.0382C20.6319 21.8542 20.5956 21.6627 20.493 21.5054L17.4983 16.9767C17.6559 16.7381 17.7533 16.4647 17.7819 16.1802C17.8105 15.8956 17.7695 15.6083 17.6625 15.3431L22.9233 10.082C22.9893 10.016 23.0417 9.9376 23.0774 9.85134C23.1131 9.76507 23.1315 9.67261 23.1315 9.57923C23.1315 9.48586 23.1131 9.3934 23.0774 9.30713C23.0416 9.22086 22.9893 9.14248 22.9232 9.07646Z" fill="white"/>
</svg>
