<svg width="21" height="21" viewBox="0 0 21 21" fill="none" xmlns="http://www.w3.org/2000/svg">
<path d="M3.05552 7.05689L4.18077 16.625H16.8193L17.9445 7.05689L14.4358 9.39576L10.5 3.88589L6.56427 9.39576L3.05552 7.05689ZM2.4509 4.55001L6.12502 7.00001L9.78777 1.87251C9.86871 1.75908 9.97557 1.66663 10.0995 1.60284C10.2233 1.53905 10.3607 1.50577 10.5 1.50577C10.6394 1.50577 10.7767 1.53905 10.9006 1.60284C11.0245 1.66663 11.1313 1.75908 11.2123 1.87251L14.875 7.00001L18.55 4.55001C18.6891 4.45748 18.8518 4.40669 19.0188 4.40366C19.1858 4.40062 19.3502 4.44546 19.4926 4.53288C19.6349 4.6203 19.7493 4.74664 19.8221 4.89698C19.895 5.04732 19.9233 5.21536 19.9036 5.38126L18.466 17.6024C18.4409 17.8152 18.3386 18.0115 18.1785 18.1539C18.0183 18.2963 17.8115 18.375 17.5971 18.375H3.4029C3.18858 18.375 2.98173 18.2963 2.82157 18.1539C2.66142 18.0115 2.5591 17.8152 2.53402 17.6024L1.0964 5.38039C1.07697 5.21456 1.1054 5.04664 1.17831 4.89644C1.25123 4.74624 1.3656 4.62004 1.50792 4.53274C1.65024 4.44544 1.81456 4.40067 1.98149 4.40373C2.14843 4.40679 2.311 4.45755 2.45002 4.55001H2.4509ZM10.5 13.125C10.0359 13.125 9.59077 12.9406 9.26259 12.6124C8.9344 12.2843 8.75002 11.8391 8.75002 11.375C8.75002 10.9109 8.9344 10.4658 9.26259 10.1376C9.59077 9.80939 10.0359 9.62501 10.5 9.62501C10.9642 9.62501 11.4093 9.80939 11.7375 10.1376C12.0656 10.4658 12.25 10.9109 12.25 11.375C12.25 11.8391 12.0656 12.2843 11.7375 12.6124C11.4093 12.9406 10.9642 13.125 10.5 13.125Z" fill="white"/>
</svg>
