<svg width="33" height="32" viewBox="0 0 33 32" fill="none" xmlns="http://www.w3.org/2000/svg">
<path d="M17.532 27.2821V22.2821L19.532 24.2821L20.5223 23.2655L16.5754 19.2L12.6286 23.2655L13.532 24.2821L15.532 22.2821V27.2821H17.532ZM16.5754 5.53247C16.879 5.53285 17.17 5.6536 17.3846 5.86825C17.5992 6.0829 17.7199 6.3739 17.7202 6.67743H19.498C19.4972 6.05797 19.2998 5.45475 18.9344 4.95456C18.5689 4.45438 18.0542 4.08302 17.4643 3.89393V2.89514H15.6866V3.86697C15.1051 3.99909 14.5862 4.32616 14.2163 4.79385C13.8464 5.26155 13.6475 5.84173 13.6529 6.43802C13.6529 7.9507 15.0143 8.79167 16.1084 9.46736C16.9008 9.95677 17.7202 10.463 17.7202 10.9842C17.7202 11.8462 16.7668 11.8898 16.5754 11.8898C16.2719 11.8894 15.9809 11.7687 15.7663 11.5541C15.5517 11.3395 15.431 11.0485 15.4306 10.745H13.6529C13.6537 11.3644 13.8511 11.9676 14.2165 12.4677C14.582 12.9679 15.0967 13.3392 15.6866 13.5283V14.5273H17.4643V13.5553C18.0458 13.4231 18.5646 13.0961 18.9346 12.6284C19.3045 12.1607 19.5033 11.5805 19.498 10.9842C19.498 9.47153 18.1366 8.63056 17.0425 7.95487C16.2501 7.46546 15.4306 6.95921 15.4306 6.43803C15.4306 5.57605 16.3841 5.53247 16.5754 5.53247ZM16.5754 17.4222C14.8525 17.4222 13.1683 16.9113 11.7358 15.9541C10.3033 14.9969 9.18675 13.6365 8.52742 12.0447C7.8681 10.453 7.69559 8.70145 8.03171 7.01166C8.36783 5.32187 9.19748 3.7697 10.4158 2.55143C11.634 1.33316 13.1862 0.503506 14.876 0.167385C16.5658 -0.168735 18.3173 0.00377445 19.909 0.663098C21.5008 1.32242 22.8613 2.43895 23.8185 3.87148C24.7757 5.30402 25.2866 6.98822 25.2866 8.71112C25.284 11.0207 24.3654 13.2349 22.7323 14.8679C21.0992 16.501 18.885 17.4196 16.5754 17.4222ZM23.5088 8.71112C23.5088 7.33983 23.1021 5.99934 22.3403 4.85916C21.5785 3.71898 20.4956 2.83032 19.2287 2.30555C17.9618 1.78078 16.5677 1.64348 15.2228 1.911C13.8779 2.17853 12.6425 2.83886 11.6728 3.80851C10.7032 4.77815 10.0429 6.01355 9.77533 7.35849C9.50781 8.70342 9.64511 10.0975 10.1699 11.3644C10.6946 12.6313 11.5833 13.7141 12.7235 14.476C13.8637 15.2378 15.2042 15.6444 16.5754 15.6444C18.4136 15.6424 20.1759 14.9112 21.4757 13.6114C22.7755 12.3116 23.5067 10.5493 23.5088 8.71112ZM30.7977 30.2222H2.35322V22.4H0.575439V31.1111C0.575431 31.2278 0.598416 31.3434 0.643084 31.4513C0.687752 31.5591 0.753226 31.6571 0.835769 31.7397C0.918312 31.8222 1.01631 31.8877 1.12415 31.9324C1.232 31.977 1.3476 32 1.46433 32H31.6866C31.8033 32 31.9189 31.977 32.0267 31.9324C32.1346 31.8877 32.2326 31.8222 32.3151 31.7397C32.3977 31.6571 32.4631 31.5591 32.5078 31.4513C32.5525 31.3434 32.5754 31.2278 32.5754 31.1111V22.4H30.7977V30.2222Z" fill="white"/>
</svg>
