<svg width="16" height="18" viewBox="0 0 16 18" fill="none" xmlns="http://www.w3.org/2000/svg">
<path d="M14.2222 1.8H13.3333V0H11.5556V1.8H4.44444V0H2.66667V1.8H1.77778C1.30628 1.8 0.854097 1.98964 0.520699 2.32721C0.187301 2.66477 0 3.12261 0 3.6V16.2C0 16.6774 0.187301 17.1352 0.520699 17.4728C0.854097 17.8104 1.30628 18 1.77778 18H14.2222C15.2 18 16 17.19 16 16.2V3.6C16 2.61 15.2 1.8 14.2222 1.8ZM8 4.5C9.47556 4.5 10.6667 5.706 10.6667 7.2C10.6667 8.694 9.47556 9.9 8 9.9C6.52444 9.9 5.33333 8.694 5.33333 7.2C5.33333 5.706 6.52444 4.5 8 4.5ZM13.3333 15.3H2.66667V14.4C2.66667 12.6 6.22222 11.61 8 11.61C9.77778 11.61 13.3333 12.6 13.3333 14.4V15.3Z" fill="white"/>
</svg>
