<svg width="12" height="13" viewBox="0 0 12 13" fill="none" xmlns="http://www.w3.org/2000/svg">
<path d="M1.75523 6.7162L6.20875 1.02598C6.27755 0.938718 6.21546 0.809509 6.10303 0.809509H4.80591C4.72368 0.809509 4.64481 0.848104 4.59447 0.91187L0.310442 6.38563C0.236248 6.48017 0.195923 6.59687 0.195923 6.71704C0.195923 6.83722 0.236248 6.95392 0.310442 7.04846L4.59447 12.5205C4.64481 12.586 4.72368 12.6229 4.80591 12.6229H6.10303C6.21546 12.6229 6.27755 12.4937 6.20875 12.4064L1.75523 6.7162ZM6.85647 6.7162L11.31 1.02598C11.3788 0.938718 11.3167 0.809509 11.2043 0.809509H9.90714C9.82492 0.809509 9.74605 0.848104 9.69571 0.91187L5.41168 6.38563C5.33748 6.48017 5.29716 6.59687 5.29716 6.71704C5.29716 6.83722 5.33748 6.95392 5.41168 7.04846L9.69571 12.5205C9.74605 12.586 9.82492 12.6229 9.90714 12.6229H11.2043C11.3167 12.6229 11.3788 12.4937 11.31 12.4064L6.85647 6.7162Z" fill="white"/>
</svg>
